<?xml version="1.0" standalone="no"?>
<!DOCTYPE svg PUBLIC "-//W3C//DTD SVG 20010904//EN"
 "http://www.w3.org/TR/2001/REC-SVG-20010904/DTD/svg10.dtd">
<svg version="1.0" xmlns="http://www.w3.org/2000/svg"
 width="1280.000000pt" height="1168.000000pt" viewBox="0 0 1280.000000 1168.000000"
 preserveAspectRatio="xMidYMid meet">

<g transform="translate(0.000000,1168.000000) scale(0.100000,-0.100000)"
fill="#000000" stroke="none">
<path d="M2180 11649 c-19 -4 -38 -5 -42 -3 -10 6 -100 -16 -116 -29 -7 -5
-15 -7 -18 -4 -6 6 -44 -5 -121 -36 -45 -18 -51 -23 -40 -36 11 -14 10 -14 -6
-2 -15 12 -22 11 -52 -5 -18 -10 -31 -22 -28 -27 3 -6 1 -7 -5 -3 -16 10 -54
-12 -46 -26 5 -7 2 -9 -9 -5 -19 7 -103 -59 -99 -79 1 -7 -2 -15 -8 -19 -6 -3
-7 0 -4 9 11 28 -10 17 -64 -34 -33 -31 -50 -55 -46 -63 4 -6 4 -9 0 -5 -4 3
-17 -3 -28 -14 -38 -38 -118 -149 -118 -164 0 -7 -4 -14 -8 -14 -10 0 -72
-123 -72 -143 0 -7 -4 -17 -9 -23 -9 -10 -49 -148 -57 -199 -3 -16 -7 -57 -10
-89 -3 -33 -7 -63 -9 -67 -3 -4 -2 -14 1 -23 5 -14 37 -16 253 -16 165 0 251
-4 258 -11 8 -8 9 2 6 33 -3 25 2 72 11 107 9 34 16 75 16 89 0 19 3 23 9 14
6 -10 10 -6 15 15 7 27 75 133 103 161 7 8 10 18 7 24 -4 6 -2 8 3 5 6 -4 17
1 24 10 12 15 12 16 -4 10 -11 -4 -16 -3 -12 4 4 5 16 7 27 3 16 -5 20 -3 15
9 -4 12 -2 14 10 10 10 -4 14 -2 9 5 -3 6 -1 14 5 18 8 4 9 3 5 -4 -12 -20 10
-13 29 8 10 11 24 20 32 20 7 0 13 5 13 11 0 5 4 8 9 5 5 -4 11 -3 13 2 1 4
37 19 78 32 93 30 288 38 345 14 19 -8 37 -14 40 -15 9 0 81 -29 108 -44 16
-8 33 -12 38 -9 5 3 8 2 7 -3 -4 -12 88 -94 109 -98 10 -1 17 -8 15 -15 -3
-16 44 -71 53 -62 5 4 5 2 1 -5 -3 -6 3 -27 14 -45 11 -18 20 -28 21 -23 1 12
23 -66 45 -155 9 -36 20 -73 26 -84 7 -14 6 -16 -3 -10 -9 5 -10 2 -6 -9 3 -9
1 -19 -5 -23 -7 -4 -6 -9 3 -15 11 -6 9 -9 -7 -9 -17 0 -20 -5 -16 -31 5 -35
-17 -149 -29 -149 -4 0 -9 9 -11 20 -5 33 -23 28 -26 -7 -2 -19 1 -33 7 -33
16 0 13 -36 -3 -49 -8 -7 -17 -24 -21 -38 -7 -29 -72 -113 -87 -113 -12 0 -43
-36 -64 -73 -8 -15 -19 -25 -25 -21 -6 3 -18 -1 -27 -9 -9 -8 -46 -25 -82 -38
-85 -30 -130 -60 -168 -112 -42 -59 -53 -108 -43 -183 10 -64 31 -119 39 -96
2 6 8 9 14 6 6 -4 5 -9 -3 -14 -10 -7 -10 -12 1 -25 11 -13 15 -13 23 -3 6 10
7 8 3 -4 -10 -34 96 -88 175 -88 53 0 173 41 264 89 32 17 64 31 71 31 8 0 14
3 14 8 0 4 18 15 39 26 33 15 251 224 251 240 0 5 8 15 53 69 10 11 20 31 23
44 4 13 10 23 14 23 4 0 11 11 14 25 8 33 20 32 32 -2 5 -16 13 -23 16 -17 4
6 0 23 -8 38 -18 36 -18 60 0 53 8 -3 17 1 20 9 4 10 2 12 -6 8 -13 -8 -2 47
11 56 7 4 21 59 25 92 1 3 4 10 9 14 4 4 7 20 7 35 0 15 4 39 9 52 11 29 15
161 7 227 -3 25 -9 70 -13 100 -3 30 -7 58 -9 63 -1 4 -2 18 -3 31 0 14 -8 31
-16 40 -17 17 -20 30 -5 21 14 -9 13 1 -5 35 -9 17 -15 31 -13 32 1 2 -9 33
-22 70 -19 51 -26 63 -35 52 -8 -11 -10 -9 -10 10 0 13 3 22 8 19 4 -2 -5 16
-20 41 -15 24 -31 42 -37 39 -5 -3 -6 -1 -2 6 7 11 -4 29 -64 105 -46 59 -134
145 -144 139 -6 -3 -8 -3 -4 2 7 7 -66 80 -74 74 -2 -2 -16 9 -32 24 -16 15
-34 27 -40 27 -6 0 -28 12 -49 26 -21 14 -45 23 -53 20 -7 -3 -13 -1 -11 5 1
6 -20 19 -48 30 -60 23 -66 23 -40 2 18 -14 18 -15 2 -9 -10 3 -21 6 -23 6 -2
0 -4 6 -4 13 0 17 -74 40 -103 32 -17 -5 -19 -4 -7 4 13 9 12 11 -5 12 -23 2
-38 4 -150 18 -88 12 -162 12 -215 0z m-43 -15 c-3 -3 -12 -4 -19 -1 -8 3 -5
6 6 6 11 1 17 -2 13 -5z m0 -20 c-3 -3 -12 -4 -19 -1 -8 3 -5 6 6 6 11 1 17
-2 13 -5z m600 -60 c-3 -3 -12 -4 -19 -1 -8 3 -5 6 6 6 11 1 17 -2 13 -5z
m-67 -14 c-8 -5 -19 -10 -25 -10 -5 0 -3 5 5 10 8 5 20 10 25 10 6 0 3 -5 -5
-10z m-931 -77 c-12 -15 -12 -16 6 -9 14 5 17 4 9 -4 -6 -6 -18 -8 -28 -4 -15
6 -15 7 1 20 24 18 28 17 12 -3z m1189 -9 c2 -1 -5 -5 -15 -8 -9 -4 -14 -4
-10 0 4 4 1 14 -6 23 -11 14 -10 15 8 1 11 -8 21 -15 23 -16z m-1253 -4 c-3
-5 -12 -10 -18 -10 -7 0 -6 4 3 10 19 12 23 12 15 0z m1322 -74 c0 -8 -6 -12
-15 -9 -11 5 -11 7 0 14 7 5 13 9 14 9 0 0 1 -6 1 -14z m83 -56 c0 -5 -2 -10
-4 -10 -3 0 -8 5 -11 10 -3 6 -1 10 4 10 6 0 11 -4 11 -10z m-863 -166 c-3 -3
-12 -4 -19 -1 -8 3 -5 6 6 6 11 1 17 -2 13 -5z m-852 -24 c3 -5 1 -10 -4 -10
-6 0 -11 5 -11 10 0 6 2 10 4 10 3 0 8 -4 11 -10z m-41 -76 c3 -8 2 -12 -4 -9
-6 3 -10 10 -10 16 0 14 7 11 14 -7z m1386 -53 c13 -11 12 -12 -6 -3 -12 7
-24 19 -28 29 -5 16 -4 16 7 3 7 -8 19 -21 27 -29z m597 -103 c-3 -8 -6 -5 -6
6 -1 11 2 17 5 13 3 -3 4 -12 1 -19z m-359 -273 c-3 -3 -9 2 -12 12 -6 14 -5
15 5 6 7 -7 10 -15 7 -18z m439 -57 c-3 -8 -6 -5 -6 6 -1 11 2 17 5 13 3 -3 4
-12 1 -19z m-450 -80 c-3 -7 -5 -2 -5 12 0 14 2 19 5 13 2 -7 2 -19 0 -25z
m-544 -653 c-3 -9 -8 -14 -10 -11 -3 3 -2 9 2 15 9 16 15 13 8 -4z m0 -250
c-3 -9 -8 -14 -10 -11 -3 3 -2 9 2 15 9 16 15 13 8 -4z m490 0 c-3 -9 -8 -14
-10 -11 -3 3 -2 9 2 15 9 16 15 13 8 -4z"/>
<path d="M5150 11650 c-19 -5 -43 -7 -54 -3 -13 4 -16 2 -11 -7 6 -10 1 -11
-17 -7 -22 6 -111 -15 -168 -40 -8 -3 -21 -7 -29 -9 -36 -7 -120 -47 -115 -55
3 -5 -4 -9 -15 -9 -23 0 -111 -51 -108 -62 1 -3 -2 -10 -7 -15 -5 -5 -6 -3 -2
5 13 22 -6 13 -55 -29 -27 -22 -46 -46 -42 -51 3 -7 1 -8 -6 -4 -15 10 -143
-124 -136 -141 2 -7 -1 -12 -6 -10 -6 1 -26 -20 -45 -48 -19 -27 -39 -56 -44
-63 -6 -7 -8 -17 -4 -24 4 -7 3 -8 -4 -4 -7 4 -14 -4 -18 -21 -4 -15 -10 -30
-13 -33 -11 -9 -34 -65 -32 -77 1 -7 -2 -13 -8 -13 -9 0 -37 -97 -33 -114 2
-5 -2 -12 -7 -15 -6 -4 -13 -27 -15 -51 -3 -25 -9 -79 -15 -120 -5 -41 -9 -82
-9 -90 1 -13 37 -15 258 -15 249 0 256 1 257 20 1 11 2 49 4 84 1 36 5 59 7
51 3 -8 11 5 18 29 7 24 10 50 7 59 -4 9 -2 13 4 9 6 -4 19 9 29 31 24 52 85
132 128 170 21 19 34 37 30 44 -5 7 -3 8 5 3 8 -4 24 1 40 12 14 11 36 23 49
27 12 4 19 12 16 18 -5 7 -2 8 5 4 7 -5 20 -1 29 7 9 9 20 16 25 16 4 1 8 1
10 2 1 0 11 2 22 3 11 1 36 8 55 14 65 20 160 20 250 0 47 -11 96 -20 109 -20
14 0 19 -3 12 -7 -7 -5 4 -13 29 -21 22 -7 40 -17 40 -23 0 -5 8 -6 17 -3 10
4 14 4 11 0 -4 -4 22 -28 57 -54 35 -26 61 -51 57 -55 -4 -5 1 -5 10 -2 11 4
15 2 12 -7 -3 -7 7 -25 21 -40 14 -15 25 -32 25 -37 0 -6 5 -7 11 -4 6 4 9 1
8 -6 -3 -19 21 -80 30 -75 4 3 7 -3 8 -12 0 -9 10 -54 22 -100 12 -46 19 -92
16 -103 -4 -11 -2 -19 4 -19 6 0 11 -5 11 -11 0 -5 -4 -7 -10 -4 -5 3 -10 -1
-10 -9 0 -9 -6 -16 -13 -16 -8 0 -14 -7 -14 -15 0 -11 4 -12 13 -4 10 8 11 4
4 -23 -5 -18 -11 -57 -15 -85 -4 -29 -11 -53 -16 -53 -5 0 -8 -3 -7 -7 0 -5
-2 -17 -6 -28 -5 -11 -10 -27 -12 -35 -4 -11 -7 -12 -13 -1 -6 9 -10 3 -14
-17 -3 -16 -12 -36 -19 -43 -8 -8 -28 -35 -46 -61 -18 -26 -46 -55 -62 -65
-17 -9 -30 -23 -30 -30 0 -7 -4 -13 -10 -13 -18 0 -99 -57 -92 -65 4 -5 1 -5
-6 -1 -15 9 -83 -14 -76 -26 3 -4 -2 -5 -10 -2 -23 9 -92 -50 -124 -104 -23
-41 -27 -58 -27 -127 0 -73 3 -85 33 -131 69 -110 193 -150 323 -105 93 32
150 61 143 73 -5 7 -3 8 5 3 16 -9 63 14 55 27 -4 5 3 4 15 -4 12 -7 19 -18
17 -24 -2 -6 8 -11 25 -11 16 0 27 3 24 5 -3 3 1 12 8 20 10 13 8 15 -20 9
-38 -8 -43 6 -9 25 68 38 176 132 228 200 14 18 38 47 52 63 15 17 40 54 56
83 17 28 35 52 42 52 6 0 9 3 5 6 -3 4 0 19 8 35 8 15 15 35 15 43 0 8 10 31
22 52 20 34 22 35 29 15 5 -11 5 -29 2 -38 -4 -11 -3 -14 5 -9 16 10 15 73 0
78 -10 4 -7 26 10 94 32 129 39 241 17 283 -10 20 -12 30 -5 26 17 -10 4 133
-13 154 -9 11 -9 13 0 8 11 -7 4 37 -14 83 -3 8 -7 25 -9 37 -5 44 -43 115
-56 107 -10 -6 -10 -5 0 8 11 13 8 25 -19 75 -17 32 -36 61 -41 64 -5 3 -10
14 -12 23 -1 10 -13 31 -27 48 -80 100 -101 123 -112 120 -7 -2 -9 -1 -5 3 18
18 -152 157 -272 223 -79 43 -208 93 -250 97 -14 1 -32 4 -40 7 -66 23 -101
28 -205 32 -66 3 -136 1 -155 -4z m157 -26 c-3 -3 -12 -4 -19 -1 -8 3 -5 6 6
6 11 1 17 -2 13 -5z m523 -138 c0 -3 -4 -8 -10 -11 -5 -3 -10 -1 -10 4 0 6 5
11 10 11 6 0 10 -2 10 -4z m48 -24 c8 -6 2 -9 -18 -9 -20 0 -26 3 -18 9 7 4
15 8 18 8 3 0 11 -4 18 -8z m-1321 -81 c0 -11 -5 -18 -9 -15 -4 3 -5 11 -1 19
7 21 12 19 10 -4z m1547 -167 c3 -8 2 -12 -4 -9 -6 3 -10 10 -10 16 0 14 7 11
14 -7z m-721 -41 c-7 -2 -19 -2 -25 0 -7 3 -2 5 12 5 14 0 19 -2 13 -5z
m-1023 -7 c0 -2 -8 -10 -17 -17 -16 -13 -17 -12 -4 4 13 16 21 21 21 13z m917
-2 c-3 -3 -12 -4 -19 -1 -8 3 -5 6 6 6 11 1 17 -2 13 -5z m923 -19 c14 -19 14
-19 -2 -6 -10 7 -18 18 -18 24 0 6 1 8 3 6 1 -2 9 -13 17 -24z m-1027 8 c-7
-2 -19 -2 -25 0 -7 3 -2 5 12 5 14 0 19 -2 13 -5z m-168 -43 c-3 -5 -14 -10
-23 -9 -14 0 -13 2 3 9 27 11 27 11 20 0z m-175 -134 c0 -2 -7 -7 -16 -10 -8
-3 -12 -2 -9 4 6 10 25 14 25 6z m-613 -138 c-3 -8 -6 -5 -6 6 -1 11 2 17 5
13 3 -3 4 -12 1 -19z m1611 -3 c-3 -3 -9 2 -12 12 -6 14 -5 15 5 6 7 -7 10
-15 7 -18z m5 -30 c-3 -9 -8 -14 -10 -11 -3 3 -2 9 2 15 9 16 15 13 8 -4z
m515 -20 c-3 -3 -9 2 -12 12 -6 14 -5 15 5 6 7 -7 10 -15 7 -18z m19 -107 c-3
-8 -6 -5 -6 6 -1 11 2 17 5 13 3 -3 4 -12 1 -19z m-10 -110 c-3 -7 -5 -2 -5
12 0 14 2 19 5 13 2 -7 2 -19 0 -25z m-767 -593 c-7 -8 -18 -15 -24 -15 -6 0
-2 7 8 15 25 19 32 19 16 0z m-235 -124 c3 -5 2 -12 -3 -15 -5 -3 -9 1 -9 9 0
17 3 19 12 6z m-7 -76 c-3 -3 -9 2 -12 12 -6 14 -5 15 5 6 7 -7 10 -15 7 -18z"/>
<path d="M8117 11651 c-16 -6 -35 -7 -43 -4 -8 3 -14 3 -14 -1 0 -3 15 -10 33
-16 l32 -10 -35 7 c-71 14 -139 4 -225 -32 -16 -7 -61 -25 -98 -40 -38 -15
-75 -34 -83 -42 -8 -8 -14 -12 -14 -8 0 3 -11 -2 -25 -11 -23 -15 -26 -34 -4
-34 6 0 7 5 4 10 -9 15 11 12 24 -3 9 -11 4 -13 -22 -12 -18 2 -41 -5 -52 -14
l-20 -16 20 24 c23 29 7 21 -47 -22 -21 -17 -35 -34 -32 -38 3 -5 -1 -6 -8 -4
-18 7 -159 -140 -152 -159 3 -8 1 -17 -5 -21 -7 -3 -8 0 -5 9 12 32 -6 14 -44
-41 -53 -80 -123 -212 -127 -243 -2 -14 -8 -38 -14 -55 -26 -75 -43 -145 -44
-183 -1 -23 -4 -42 -7 -42 -3 0 -6 -28 -8 -63 l-3 -62 258 0 258 0 1 57 c2 74
35 178 79 251 38 62 41 72 23 61 -7 -5 -8 -2 -3 7 15 26 38 49 49 49 6 0 0 -7
-12 -16 -12 -8 -22 -20 -22 -26 0 -6 26 15 58 47 31 33 57 64 57 69 0 5 7 11
15 13 13 4 13 3 0 -6 -8 -6 -12 -11 -7 -11 4 0 31 16 60 35 30 20 62 37 73 40
10 2 48 14 84 26 91 31 219 29 327 -6 86 -27 97 -29 88 -16 -3 5 -1 12 4 16 6
3 8 -3 6 -15 -3 -16 10 -26 68 -56 40 -20 63 -33 52 -30 -19 6 -19 6 -1 -8 43
-34 86 -77 86 -87 0 -6 5 -7 12 -3 7 4 8 3 4 -5 -4 -6 5 -23 21 -40 16 -16 27
-35 24 -42 -3 -11 -1 -12 11 -1 13 10 15 8 10 -14 -3 -15 -1 -24 4 -21 5 3 10
-6 11 -20 0 -14 6 -29 13 -33 6 -4 14 -32 17 -63 3 -32 9 -57 12 -57 4 0 5
-19 3 -42 -2 -32 -1 -39 7 -28 6 8 11 11 11 6 0 -5 -8 -18 -17 -28 -11 -12
-16 -32 -15 -54 2 -19 -1 -40 -5 -47 -4 -7 -9 -21 -10 -32 -7 -45 -35 -122
-58 -160 -14 -22 -29 -49 -34 -60 -14 -29 -152 -160 -191 -180 -26 -13 -30
-19 -19 -27 10 -7 8 -8 -8 -3 -12 3 -48 -5 -86 -20 -79 -32 -140 -90 -162
-153 -16 -49 -21 -157 -6 -166 4 -3 11 -18 15 -33 3 -16 20 -44 37 -63 17 -19
28 -30 26 -25 -3 6 7 11 21 12 22 1 23 -1 9 -8 -27 -16 -20 -25 34 -48 75 -31
142 -28 241 10 100 39 154 69 138 79 -6 3 6 6 27 6 41 -1 72 -20 52 -32 -6 -3
-16 0 -21 7 -8 11 -8 10 -4 -4 3 -10 6 -21 6 -23 0 -2 11 -2 24 2 18 4 25 1
29 -15 8 -30 47 -28 47 2 0 17 -9 27 -35 37 -60 24 -59 32 7 81 63 45 180 156
233 220 28 35 66 96 89 146 6 13 14 23 19 23 4 0 7 5 7 11 0 5 11 34 24 62 33
70 56 137 56 166 0 14 5 21 13 18 9 -3 12 12 12 57 1 66 9 130 20 166 4 13 3
20 -2 17 -6 -4 -10 10 -11 29 -1 19 -4 39 -7 45 -4 5 -9 38 -11 72 -2 34 -6
73 -8 87 -3 14 -5 39 -6 55 l-2 30 -8 -30 c-8 -29 -9 -28 -8 10 0 22 -4 51 -9
65 -6 14 -8 31 -5 39 4 10 1 12 -8 6 -9 -6 -12 -4 -8 7 8 19 -49 141 -62 133
-6 -4 -7 1 -3 11 4 11 3 15 -4 11 -7 -5 -9 0 -6 12 3 11 -2 21 -11 24 -9 4
-16 14 -16 24 0 21 -46 78 -62 78 -6 0 -13 7 -15 15 -4 13 -3 13 6 0 6 -8 11
-10 11 -4 0 11 -53 65 -67 67 -4 1 -7 5 -6 8 1 4 -13 23 -32 43 -33 36 -53 48
-39 24 5 -9 2 -9 -9 1 -19 15 -23 26 -5 15 7 -5 8 -3 4 5 -5 7 -14 10 -22 7
-9 -3 -11 0 -7 11 5 12 1 14 -18 8 -15 -4 -19 -3 -11 3 9 6 6 14 -15 33 -14
13 -23 17 -18 9 4 -8 -2 -4 -15 8 -14 15 -30 22 -41 19 -11 -3 -17 -1 -14 4 8
12 -72 62 -86 53 -7 -4 -10 -3 -6 3 3 5 -17 18 -46 28 -29 10 -63 23 -77 28
-30 12 -26 11 -120 37 -84 23 -306 36 -353 21z m-54 -38 c-7 -2 -19 -2 -25 0
-7 3 -2 5 12 5 14 0 19 -2 13 -5z m617 -77 c0 -2 -9 -6 -20 -9 -11 -3 -18 -1
-14 4 5 9 34 13 34 5z m165 -86 c3 -6 -1 -7 -9 -4 -18 7 -21 14 -7 14 6 0 13
-4 16 -10z m-1409 -156 c-6 -29 -16 -45 -16 -25 0 8 -6 11 -17 7 -12 -5 -9 1
7 17 32 32 31 32 26 1z m741 -120 c-3 -3 -12 -4 -19 -1 -8 3 -5 6 6 6 11 1 17
-2 13 -5z m176 -1 c-7 -2 -19 -2 -25 0 -7 3 -2 5 12 5 14 0 19 -2 13 -5z
m-100 -10 c-7 -2 -19 -2 -25 0 -7 3 -2 5 12 5 14 0 19 -2 13 -5z m908 -15 c11
-21 11 -22 -4 -9 -10 7 -17 17 -17 22 0 15 9 10 21 -13z m-1211 -53 c0 -2 -6
-5 -13 -8 -8 -3 -14 1 -14 8 0 7 6 11 14 8 7 -3 13 -6 13 -8z m897 -387 c-3
-8 -6 -5 -6 6 -1 11 2 17 5 13 3 -3 4 -12 1 -19z m-372 -768 c-12 -5 -14 -9
-6 -9 8 -1 12 -3 9 -6 -3 -3 -13 -2 -22 1 -14 5 -15 9 -4 15 7 5 20 8 28 8 10
0 8 -3 -5 -9z m-198 -162 c-3 -8 -6 -5 -6 6 -1 11 2 17 5 13 3 -3 4 -12 1 -19z
m30 0 c-3 -8 -6 -5 -6 6 -1 11 2 17 5 13 3 -3 4 -12 1 -19z m510 -200 c-3 -8
-6 -5 -6 6 -1 11 2 17 5 13 3 -3 4 -12 1 -19z m-437 -88 c0 -5 -5 -10 -11 -10
-5 0 -7 5 -4 10 3 6 8 10 11 10 2 0 4 -4 4 -10z"/>
<path d="M11106 11652 c7 -4 -16 -7 -51 -8 -34 0 -71 -4 -81 -9 -10 -4 -33 -9
-50 -11 -18 -1 -51 -12 -75 -23 -24 -10 -62 -25 -84 -31 -22 -7 -44 -17 -50
-23 -7 -7 -5 -7 4 -2 10 5 12 4 7 -4 -4 -6 -12 -9 -17 -5 -10 6 -69 -17 -69
-27 0 -4 -9 -9 -21 -12 -12 -3 -18 -10 -14 -16 4 -7 0 -8 -11 -4 -13 5 -15 3
-9 -7 6 -10 4 -12 -8 -7 -9 3 -21 -1 -29 -11 -11 -13 -11 -14 1 -7 9 5 12 4 7
-3 -4 -6 -12 -9 -19 -7 -7 3 -30 -11 -52 -31 -22 -20 -32 -33 -22 -30 11 3 16
2 12 -4 -4 -6 -12 -9 -19 -8 -17 4 -79 -50 -71 -62 4 -6 2 -9 -3 -8 -16 5
-102 -96 -97 -113 3 -9 -5 -24 -17 -35 l-23 -19 18 21 c19 23 23 39 7 29 -11
-7 -54 -87 -51 -94 2 -2 -1 -7 -6 -10 -8 -6 -43 -76 -79 -156 -9 -22 -18 -52
-18 -66 -1 -15 -4 -25 -7 -24 -7 5 -43 -171 -37 -182 3 -4 2 -33 -1 -63 l-7
-55 258 0 258 0 0 40 c0 59 34 178 67 237 17 29 28 59 26 66 -3 7 -1 11 4 10
14 -4 64 58 60 74 -2 7 -2 10 0 6 5 -8 115 78 121 93 2 5 9 9 14 9 18 0 88 33
88 42 0 4 7 4 17 1 12 -5 14 -3 8 7 -5 9 -4 11 4 6 6 -4 35 0 63 10 37 12 77
16 147 14 53 -2 112 -3 131 -3 19 0 29 -2 21 -5 -24 -8 92 -43 124 -38 25 5
27 4 11 -5 -17 -10 -13 -15 34 -42 59 -34 146 -117 186 -176 14 -23 30 -38 34
-36 5 3 6 -5 2 -17 -4 -16 -2 -19 8 -13 9 5 11 4 6 -4 -4 -6 -3 -17 2 -24 13
-15 47 -145 57 -213 5 -44 4 -54 -12 -65 -12 -10 -18 -27 -18 -54 0 -114 -66
-245 -184 -363 -63 -62 -190 -142 -227 -142 -26 0 -99 -56 -126 -97 -46 -70
-54 -177 -19 -257 12 -27 24 -46 28 -42 3 3 15 -8 25 -25 25 -41 112 -79 181
-79 54 0 121 21 222 69 130 63 147 70 160 65 7 -3 16 -1 20 5 3 6 -2 11 -12
12 -13 0 -14 2 -4 6 17 7 37 23 105 85 28 26 54 48 59 48 4 0 7 4 7 9 0 6 22
31 49 58 77 75 168 242 210 385 9 31 19 59 22 63 9 9 -2 55 -12 49 -5 -3 -9
-1 -9 4 0 6 7 13 16 16 12 5 15 16 12 45 -2 22 1 37 5 34 5 -3 7 61 4 148 -5
153 -10 201 -26 249 -5 14 -15 46 -21 73 -7 26 -16 47 -20 47 -4 0 -8 6 -7 13
1 34 -4 48 -15 41 -6 -4 -8 -3 -5 3 8 12 -16 74 -35 95 -7 7 -21 30 -31 49
-26 51 -121 174 -135 174 -6 0 -17 7 -24 15 -11 12 -10 12 7 0 11 -8 0 7 -24
32 -25 27 -49 44 -57 41 -9 -3 -12 0 -9 8 6 17 -80 83 -95 74 -6 -4 -9 -1 -8
5 4 17 -93 70 -117 64 -16 -4 -17 -3 -5 5 13 10 13 11 0 12 -8 1 -24 1 -35 0
-15 -1 -17 0 -7 7 24 17 -249 102 -327 102 -15 0 -33 -6 -41 -12 -12 -11 -12
-10 -1 5 13 16 7 17 -85 17 -55 0 -94 -4 -88 -8z m263 -21 c11 -7 9 -10 -8
-16 -13 -4 -25 -4 -28 -1 -4 3 2 6 13 6 16 0 17 2 4 10 -8 5 -10 10 -5 10 6 0
16 -4 24 -9z m261 -75 c0 -2 -7 -7 -16 -10 -8 -3 -12 -2 -9 4 6 10 25 14 25 6z
m164 -84 c2 -4 -4 -8 -14 -8 -10 0 -16 4 -14 8 3 4 9 8 14 8 5 0 11 -4 14 -8z
m61 -72 c3 -5 1 -10 -4 -10 -6 0 -11 5 -11 10 0 6 2 10 4 10 3 0 8 -4 11 -10z
m-722 -227 c-7 -2 -19 -2 -25 0 -7 3 -2 5 12 5 14 0 19 -2 13 -5z m-16 -19
c-3 -3 -12 -4 -19 -1 -8 3 -5 6 6 6 11 1 17 -2 13 -5z m-822 -23 c-3 -6 -11
-11 -16 -11 -5 0 -4 6 3 14 14 16 24 13 13 -3z m1220 -51 c-3 -5 -12 -10 -18
-10 -7 0 -6 4 3 10 19 12 23 12 15 0z m-1324 -93 c-10 -9 -11 -8 -5 6 3 10 9
15 12 12 3 -3 0 -11 -7 -18z m1544 -47 c3 -6 -1 -7 -9 -4 -18 7 -21 14 -7 14
6 0 13 -4 16 -10z m-1071 -76 c3 -8 2 -12 -4 -9 -6 3 -10 10 -10 16 0 14 7 11
14 -7z m-506 -79 c-3 -3 -9 2 -12 12 -6 14 -5 15 5 6 7 -7 10 -15 7 -18z
m1669 -57 c-3 -8 -6 -5 -6 6 -1 11 2 17 5 13 3 -3 4 -12 1 -19z m440 -430 c-3
-8 -6 -5 -6 6 -1 11 2 17 5 13 3 -3 4 -12 1 -19z m-820 -354 c-3 -3 -12 -4
-19 -1 -8 3 -5 6 6 6 11 1 17 -2 13 -5z m-107 -38 c0 -3 -4 -8 -10 -11 -5 -3
-10 -1 -10 4 0 6 5 11 10 11 6 0 10 -2 10 -4z m15 -26 c-3 -5 -12 -10 -18 -10
-7 0 -6 4 3 10 19 12 23 12 15 0z m-75 -278 c0 -5 -7 -17 -15 -28 -14 -18 -14
-17 -4 9 12 27 19 34 19 19z m267 -98 c-3 -3 -12 -4 -19 -1 -8 3 -5 6 6 6 11
1 17 -2 13 -5z"/>
<path d="M1195 10510 c6 -10 0 -12 -31 -7 -21 3 -48 1 -59 -4 -19 -9 -18 -9 3
-5 12 2 22 0 22 -5 0 -5 -14 -9 -31 -9 -22 0 -32 -5 -36 -20 -3 -11 -11 -20
-19 -20 -7 0 -16 -4 -19 -10 -4 -6 15 -10 49 -10 52 0 56 2 53 23 -2 21 2 22
71 25 48 2 79 -1 89 -9 20 -17 1583 -27 1583 -10 0 8 -164 11 -612 12 -685 2
-978 9 -978 24 0 6 63 12 157 16 l158 5 -191 0 c-104 0 -196 4 -204 9 -9 6
-11 4 -5 -5z"/>
<path d="M1702 10508 c-7 -7 -12 -16 -12 -21 0 -5 7 -1 16 8 9 9 14 18 12 20
-2 3 -10 -1 -16 -7z"/>
<path d="M4688 10496 c13 -14 18 -15 20 -5 2 12 91 14 524 11 l521 -2 23 -27
c17 -20 20 -31 14 -44 -7 -12 -5 -19 7 -23 21 -8 21 -9 25 44 l3 44 -45 8
c-25 4 -284 9 -577 10 -518 3 -531 3 -515 -16z"/>
<path d="M6760 10510 l-285 -5 288 -3 c183 -1 287 -6 287 -12 0 -5 4 -10 9
-10 5 0 7 9 4 20 -3 11 -8 19 -12 18 -3 -2 -134 -5 -291 -8z"/>
<path d="M7070 10509 c0 -5 11 -9 25 -9 14 0 25 2 25 4 0 2 -11 6 -25 8 -14 3
-25 1 -25 -3z"/>
<path d="M10015 10510 c2 -3 -127 -4 -286 -2 -206 2 -289 0 -289 -8 0 -6 -4
-9 -8 -6 -4 2 -14 1 -22 -4 -12 -8 -11 -12 5 -28 20 -18 57 -19 1063 -20 644
0 1042 3 1042 9 0 5 34 9 75 9 43 0 75 4 75 10 0 17 -140 16 -150 0 -3 -5
-472 -8 -1043 -8 -892 1 -1037 3 -1032 15 3 8 5 17 5 19 0 3 140 4 311 4 290
-1 369 2 285 12 -19 2 -33 1 -31 -2z"/>
<path d="M10585 10510 l-30 -8 32 -1 c17 0 34 -7 36 -13 4 -10 7 -10 14 -1 7
10 112 13 444 16 l434 3 -447 -1 c-245 0 -444 3 -441 8 5 8 0 8 -42 -3z"/>
<path d="M1750 10503 c0 -7 409 -7 925 0 110 1 -53 3 -362 5 -310 1 -563 -1
-563 -5z"/>
<path d="M3501 10497 c-8 -11 -7 -19 7 -34 17 -20 32 -20 1135 -21 711 -1
1117 2 1117 8 0 12 -852 17 -1687 11 -320 -2 -553 0 -553 5 1 31 19 34 250 37
l235 2 -246 3 c-197 2 -249 -1 -258 -11z"/>
<path d="M4050 10502 c14 -2 31 -9 38 -14 8 -7 12 -7 12 1 0 7 79 12 263 14
l262 3 -300 0 c-165 0 -289 -1 -275 -4z"/>
<path d="M7288 10503 c67 -2 177 -2 245 0 67 1 12 3 -123 3 -135 0 -190 -2
-122 -3z"/>
<path d="M7673 10502 c-10 -6 579 -6 967 1 85 1 -95 3 -400 5 -305 1 -560 -2
-567 -6z"/>
<path d="M10203 10503 c64 -2 170 -2 235 0 64 1 11 3 -118 3 -129 0 -182 -2
-117 -3z"/>
<path d="M11563 10503 c15 -2 37 -2 50 0 12 2 0 4 -28 4 -27 0 -38 -2 -22 -4z"/>
<path d="M1633 10493 c9 -2 25 -2 35 0 9 3 1 5 -18 5 -19 0 -27 -2 -17 -5z"/>
<path d="M4645 10490 c3 -5 11 -10 16 -10 6 0 7 5 4 10 -3 6 -11 10 -16 10 -6
0 -7 -4 -4 -10z"/>
<path d="M8801 10484 c0 -11 3 -14 6 -6 3 7 2 16 -1 19 -3 4 -6 -2 -5 -13z"/>
<path d="M11658 10493 c12 -2 30 -2 40 0 9 3 -1 5 -23 4 -22 0 -30 -2 -17 -4z"/>
<path d="M978 10483 c6 -2 18 -2 25 0 6 3 1 5 -13 5 -14 0 -19 -2 -12 -5z"/>
<path d="M1038 10483 c7 -3 16 -2 19 1 4 3 -2 6 -13 5 -11 0 -14 -3 -6 -6z"/>
<path d="M3456 10459 c-10 -50 -7 -69 9 -69 12 0 15 -18 15 -102 0 -75 3 -99
11 -91 17 17 12 164 -7 209 -9 21 -14 48 -11 61 2 13 1 23 -3 23 -4 0 -10 -14
-14 -31z"/>
<path d="M4128 10483 c7 -3 16 -2 19 1 4 3 -2 6 -13 5 -11 0 -14 -3 -6 -6z"/>
<path d="M11728 10483 c7 -3 16 -2 19 1 4 3 -2 6 -13 5 -11 0 -14 -3 -6 -6z"/>
<path d="M947 10473 c-4 -3 -7 -13 -7 -22 1 -13 3 -13 11 2 11 19 8 33 -4 20z"/>
<path d="M7526 10473 c-1 -1 -97 -3 -212 -3 -200 -1 -257 -8 -226 -28 7 -5 12
-15 10 -22 -5 -23 25 -17 52 10 l25 25 175 -7 c96 -4 191 -8 210 -10 104 -7
1240 3 1240 12 0 7 -193 10 -557 11 -307 0 -593 4 -636 8 -43 3 -79 6 -81 4z"/>
<path d="M11761 10464 c0 -11 3 -14 6 -6 3 7 2 16 -1 19 -3 4 -6 -2 -5 -13z"/>
<path d="M11705 10454 c-10 -8 -14 -14 -8 -14 16 0 26 -69 13 -85 -7 -8 -9
-23 -5 -34 3 -10 1 -22 -5 -26 -13 -8 -13 -35 0 -35 6 0 10 6 10 13 0 7 10 24
22 36 18 20 20 28 10 53 -6 16 -8 44 -5 62 6 39 -5 50 -32 30z"/>
<path d="M6410 10450 c0 -6 112 -10 315 -10 203 0 315 4 315 10 0 6 -112 10
-315 10 -203 0 -315 -4 -315 -10z"/>
<path d="M875 10431 c2 -4 -13 -7 -33 -8 -53 -1 -103 -14 -96 -24 3 -5 -2 -9
-10 -9 -8 0 -18 -9 -21 -20 -6 -20 -35 -28 -35 -10 0 6 -5 10 -11 10 -6 0 -9
-6 -6 -12 7 -24 70 -17 90 9 10 12 25 23 33 23 8 0 14 3 14 8 0 4 18 7 40 7
22 0 40 -3 40 -7 0 -5 18 -8 41 -8 24 0 38 4 34 10 -3 5 0 7 8 4 8 -3 18 -1
21 4 3 5 -3 12 -14 15 -11 3 -23 1 -26 -4 -3 -5 -12 -9 -20 -9 -8 0 -13 4 -10
9 3 5 -5 11 -19 13 -13 3 -23 2 -20 -1z m-22 -18 c-7 -2 -19 -2 -25 0 -7 3 -2
5 12 5 14 0 19 -2 13 -5z"/>
<path d="M9391 10426 c-14 -17 -7 -36 15 -36 15 0 18 18 5 38 -6 10 -10 10
-20 -2z"/>
<path d="M3995 10410 c-4 -6 7 -10 25 -10 18 0 29 4 25 10 -3 6 -15 10 -25 10
-10 0 -22 -4 -25 -10z"/>
<path d="M10570 10410 c0 -5 5 -10 11 -10 5 0 7 5 4 10 -3 6 -8 10 -11 10 -2
0 -4 -4 -4 -10z"/>
<path d="M10695 10410 c-3 -5 1 -10 10 -10 9 0 13 5 10 10 -3 6 -8 10 -10 10
-2 0 -7 -4 -10 -10z"/>
<path d="M11515 10410 c-3 -5 0 -10 7 -11 7 0 42 -3 78 -5 36 -2 70 -6 75 -8
6 -2 12 5 12 15 2 17 -6 19 -82 19 -46 0 -87 -4 -90 -10z"/>
<path d="M2740 10392 c0 -11 5 -34 11 -51 9 -24 9 -35 0 -44 -6 -6 -11 -22
-11 -35 0 -17 5 -23 18 -20 14 3 18 16 20 71 3 63 15 88 25 50 3 -10 5 -4 6
12 1 28 -2 31 -34 33 -28 2 -35 -1 -35 -16z"/>
<path d="M8665 10398 c-2 -7 -6 -49 -7 -93 -2 -56 -7 -79 -15 -78 -8 2 -10 -4
-6 -14 4 -11 8 -13 11 -5 2 7 10 12 18 12 8 0 14 4 14 9 0 14 33 23 40 11 4
-6 19 14 34 46 21 43 26 66 21 92 -12 62 -38 21 -49 -77 -1 -14 -8 -27 -14
-29 -16 -5 -31 58 -20 86 4 13 8 30 8 38 0 17 -29 19 -35 2z"/>
<path d="M10048 10403 c7 -3 16 -2 19 1 4 3 -2 6 -13 5 -11 0 -14 -3 -6 -6z"/>
<path d="M5750 10386 c0 -8 12 -33 28 -56 24 -37 27 -40 30 -20 2 12 -3 29
-11 38 -8 9 -17 25 -20 35 -8 20 -27 23 -27 3z"/>
<path d="M611 10321 c10 -15 10 -23 -1 -35 -25 -32 1 -29 30 2 16 18 35 32 42
32 9 0 9 3 -2 10 -20 13 -43 13 -35 0 8 -13 -1 -13 -26 1 -18 9 -19 8 -8 -10z"/>
<path d="M5762 10300 c0 -14 2 -19 5 -12 2 6 2 18 0 25 -3 6 -5 1 -5 -13z"/>
<path d="M9427 10304 c-10 -11 -9 -52 3 -59 6 -3 13 1 16 10 8 19 -8 60 -19
49z"/>
<path d="M780 10289 c0 -5 5 -7 10 -4 6 3 10 8 10 11 0 2 -4 4 -10 4 -5 0 -10
-5 -10 -11z"/>
<path d="M2801 10273 c0 -12 -14 -34 -31 -50 -16 -15 -30 -36 -30 -45 0 -10
-4 -18 -10 -18 -5 0 -10 -8 -9 -17 0 -11 3 -13 6 -5 2 6 10 12 17 12 6 0 17
12 24 28 7 15 19 40 28 55 8 15 13 35 11 45 -4 13 -5 12 -6 -5z"/>
<path d="M9387 10283 c-4 -3 -7 -11 -7 -17 0 -6 5 -5 12 2 6 6 9 14 7 17 -3 3
-9 2 -12 -2z"/>
<path d="M504 10268 c-5 -8 -1 -9 12 -5 14 6 13 2 -6 -14 l-25 -21 29 17 c26
16 30 16 38 1 11 -19 28 -21 28 -3 0 6 -12 18 -27 25 -33 15 -40 15 -49 0z"/>
<path d="M6390 10259 c0 -11 5 -17 10 -14 6 3 10 13 10 21 0 8 -4 14 -10 14
-5 0 -10 -9 -10 -21z"/>
<path d="M678 10263 c-26 -6 -22 -22 6 -29 35 -8 60 -1 64 19 3 13 -3 17 -25
16 -15 -1 -36 -3 -45 -6z"/>
<path d="M5602 10238 c-17 -17 -15 -58 2 -58 12 0 25 28 27 57 1 13 -16 14
-29 1z"/>
<path d="M5692 10241 c-16 -10 2 -28 33 -31 33 -4 36 -1 18 20 -19 22 -31 24
-51 11z"/>
<path d="M9380 10210 c0 -40 37 -129 54 -130 4 0 5 8 1 18 -4 9 -10 40 -15 67
-5 28 -11 58 -15 68 -12 30 -25 18 -25 -23z"/>
<path d="M11580 10230 c0 -13 -7 -20 -20 -20 -11 0 -20 7 -20 15 0 8 -4 15
-10 15 -5 0 -10 -15 -10 -34 0 -55 38 -70 54 -20 4 12 16 24 26 27 26 7 26 37
0 37 -13 0 -20 -7 -20 -20z"/>
<path d="M11648 10201 c-27 -27 -48 -56 -48 -65 0 -35 47 11 84 82 9 17 15 32
14 32 -2 0 -24 -22 -50 -49z"/>
<path d="M3420 10228 c0 -21 26 -88 38 -100 7 -7 12 -22 12 -35 0 -14 6 -23
15 -23 10 0 15 10 15 30 0 17 -4 30 -9 30 -5 0 -11 14 -15 31 -4 22 -10 30
-21 25 -11 -4 -15 2 -15 24 0 17 -4 30 -10 30 -5 0 -10 -6 -10 -12z"/>
<path d="M430 10210 c-8 -5 -11 -12 -7 -16 9 -9 -32 -54 -49 -54 -6 0 -18 -7
-25 -16 -11 -14 -10 -18 6 -30 28 -21 41 -17 16 5 -12 11 -18 22 -13 25 6 3
12 -1 16 -9 8 -23 25 -18 36 10 5 14 14 25 20 25 6 0 8 5 4 11 -4 7 0 9 14 5
11 -4 23 -2 27 3 4 7 -1 8 -12 4 -16 -6 -16 -4 2 18 11 13 13 18 5 12 -8 -7
-20 -13 -28 -13 -12 0 -12 3 -2 15 14 17 11 19 -10 5z"/>
<path d="M8671 10180 c-32 -40 -44 -74 -15 -46 8 9 24 20 34 26 19 10 33 47
20 55 -4 2 -21 -13 -39 -35z"/>
<path d="M12353 10209 c15 -9 15 -12 3 -25 -18 -17 -28 -18 -24 -1 7 28 -18
10 -29 -23 -15 -43 -16 -50 -3 -50 6 0 13 12 16 28 4 20 12 27 30 28 13 1 22
-2 19 -6 -3 -4 2 -14 11 -21 14 -11 13 -15 -7 -29 -12 -10 -19 -22 -15 -29 11
-16 18 -14 53 19 17 16 34 26 38 21 3 -5 -5 -17 -17 -25 -12 -9 -18 -16 -12
-16 6 0 19 6 29 14 16 12 17 16 6 29 -7 9 -20 13 -28 10 -13 -5 -15 -2 -10 11
4 9 3 15 -2 12 -4 -3 -16 3 -26 14 -10 11 -15 20 -10 20 4 0 2 7 -5 15 -7 8
-18 15 -24 15 -6 0 -3 -5 7 -11z"/>
<path d="M9336 10176 c-16 -33 -13 -66 5 -66 5 0 9 8 10 18 0 9 2 32 3 50 2
17 2 32 1 32 -2 0 -10 -15 -19 -34z"/>
<path d="M2642 10189 c-27 -10 -35 -26 -42 -81 -6 -43 -4 -47 17 -51 16 -3 27
2 33 14 13 23 13 32 0 24 -13 -8 -13 5 3 38 13 30 27 35 27 11 0 -28 24 -9 27
22 3 26 0 30 -21 30 -13 0 -33 -3 -44 -7z"/>
<path d="M391 10167 c-13 -21 -12 -21 5 -5 10 10 16 20 13 22 -3 3 -11 -5 -18
-17z"/>
<path d="M3505 10177 c-4 -10 -5 -21 -1 -24 10 -10 18 4 13 24 -4 17 -4 17
-12 0z"/>
<path d="M5680 10165 c-7 -14 -10 -28 -7 -32 11 -10 46 27 40 43 -8 21 -18 17
-33 -11z"/>
<path d="M3398 10159 c-6 -42 4 -89 18 -89 19 0 28 20 15 33 -6 6 -11 20 -11
32 0 11 -4 26 -9 34 -7 11 -10 9 -13 -10z"/>
<path d="M6378 10174 c-3 -5 0 -25 7 -44 l12 -35 7 39 c4 21 5 41 2 44 -3 3
-6 -1 -6 -9 0 -12 -2 -12 -9 0 -5 7 -11 9 -13 5z"/>
<path d="M5597 10126 c-3 -8 -2 -18 3 -21 13 -8 24 15 12 27 -6 6 -11 4 -15
-6z"/>
<path d="M9360 10101 c0 -17 5 -31 10 -31 6 0 10 11 10 24 0 14 -4 28 -10 31
-6 4 -10 -7 -10 -24z"/>
<path d="M311 10087 c-6 -8 -8 -17 -5 -20 4 -3 -1 -14 -10 -23 -10 -9 -15 -23
-12 -31 4 -8 1 -11 -5 -8 -6 4 -8 14 -5 22 4 8 1 11 -5 8 -6 -4 -8 -13 -5 -20
2 -7 -4 -22 -15 -33 -10 -12 -15 -24 -9 -27 5 -3 14 4 20 15 6 11 17 20 24 20
8 0 20 8 27 17 10 11 10 14 2 9 -18 -10 -16 5 3 32 10 15 11 22 3 22 -8 0 -8
4 1 15 7 8 10 15 7 15 -2 0 -10 -6 -16 -13z"/>
<path d="M5620 10090 c0 -5 -8 -10 -17 -10 -10 0 -25 -5 -33 -11 -11 -7 -4 -8
25 -4 47 7 85 35 47 35 -12 0 -22 -4 -22 -10z"/>
<path d="M6330 10100 c-8 -27 -8 -50 -1 -54 13 -8 19 16 10 39 -4 11 -8 18 -9
15z"/>
<path d="M9307 10093 c-4 -3 -7 -11 -7 -17 0 -6 5 -5 12 2 6 6 9 14 7 17 -3 3
-9 2 -12 -2z"/>
<path d="M11568 10093 c7 -3 16 -2 19 1 4 3 -2 6 -13 5 -11 0 -14 -3 -6 -6z"/>
<path d="M12464 10089 c-4 -7 -3 -9 4 -5 6 3 13 2 17 -4 3 -5 1 -10 -5 -10 -7
0 -5 -9 4 -22 19 -27 21 -42 4 -32 -9 5 -9 2 1 -9 7 -9 19 -17 27 -17 7 0 18
-9 24 -21 7 -11 14 -18 17 -16 2 3 -1 16 -8 29 -7 12 -12 28 -11 35 1 6 -2 14
-8 18 -5 3 -7 0 -4 -8 3 -8 1 -18 -5 -22 -6 -3 -9 0 -5 8 3 8 -2 22 -11 31 -9
9 -14 20 -11 25 3 5 -1 14 -8 20 -11 9 -16 9 -22 0z"/>
<path d="M2134 10082 c-6 -4 -13 -15 -17 -24 -3 -10 -13 -18 -21 -18 -20 0
-28 -32 -20 -77 7 -37 30 -71 41 -60 3 3 -2 13 -11 22 -22 23 -20 39 10 85 29
43 80 68 111 52 12 -6 26 -4 41 3 21 11 17 12 -35 14 -31 0 -64 3 -73 6 -8 2
-20 1 -26 -3z"/>
<path d="M2352 10075 c-7 -8 -26 -15 -42 -15 -17 0 -30 -3 -30 -8 0 -4 18 -7
39 -7 22 0 34 3 28 7 -8 5 -5 8 8 9 63 3 109 10 114 15 3 4 -9 5 -26 2 -18 -2
-33 -1 -33 4 0 14 -44 8 -58 -7z"/>
<path d="M5160 10083 c-36 -15 -55 -56 -44 -97 6 -25 26 -27 23 -3 -1 7 -1 27
0 45 1 31 3 33 34 30 27 -3 32 -7 29 -27 -1 -13 -19 -39 -40 -58 -23 -23 -32
-37 -24 -40 6 -3 9 -9 6 -14 -3 -6 -11 -6 -20 2 -11 9 -16 6 -24 -12 -5 -13
-20 -36 -32 -52 -16 -20 -19 -30 -11 -38 8 -8 8 -20 1 -41 -6 -16 -8 -32 -4
-35 3 -4 6 -1 6 6 0 7 3 10 8 8 4 -3 7 7 8 22 1 28 44 124 52 116 10 -10 31
25 25 41 -5 13 -3 16 10 11 12 -4 14 -2 10 10 -5 12 -2 15 10 10 17 -7 41 15
29 28 -4 5 0 6 9 2 13 -4 16 -1 12 14 -4 13 2 21 21 29 14 5 26 16 26 25 0 19
-7 19 -26 0 -17 -17 -49 -21 -39 -5 3 6 1 10 -5 10 -6 0 -8 5 -5 10 7 11 -20
12 -45 3z m50 -97 c0 -3 -4 -8 -10 -11 -5 -3 -10 -1 -10 4 0 6 5 11 10 11 6 0
10 -2 10 -4z"/>
<path d="M5400 10080 c-12 -8 -11 -10 8 -10 12 0 22 5 22 10 0 13 -11 13 -30
0z"/>
<path d="M8203 10084 c-7 -3 -9 -12 -6 -20 6 -16 -13 -19 -22 -4 -5 8 -12 7
-22 -2 -8 -7 -37 -14 -64 -16 -44 -3 -49 -1 -49 17 0 14 -7 21 -20 21 -13 0
-20 -7 -20 -20 0 -13 7 -20 20 -20 18 0 20 -7 20 -59 0 -43 5 -64 17 -76 16
-16 17 -16 30 1 7 10 10 20 5 23 -4 3 -7 21 -8 38 -1 32 -1 32 16 13 17 -20
17 -20 35 0 17 19 19 19 32 2 8 -9 12 -12 8 -5 -6 13 12 52 30 65 6 4 20 8 32
8 20 0 40 16 31 25 -7 7 -54 14 -65 9z"/>
<path d="M8287 10070 c3 -11 10 -20 15 -20 5 0 6 5 2 12 -5 8 2 9 23 5 20 -4
30 -2 30 7 0 7 -16 13 -38 14 -33 2 -37 0 -32 -18z"/>
<path d="M8565 10080 c-16 -7 -17 -9 -3 -9 9 -1 20 4 23 9 7 11 7 11 -20 0z"/>
<path d="M11207 10071 c-3 -14 0 -17 14 -14 11 3 19 1 19 -5 0 -17 -33 -19
-57 -4 -22 13 -23 13 -23 -12 0 -21 -5 -26 -23 -26 -31 0 -77 -48 -58 -59 9
-6 10 -11 2 -15 -6 -4 -15 -5 -20 -2 -5 3 -11 -4 -14 -16 -8 -29 -3 -33 17
-13 9 9 16 13 16 9 0 -4 9 2 20 14 24 25 25 33 5 26 -10 -4 -15 0 -15 11 0 12
7 16 28 13 17 -2 26 2 25 9 -2 7 4 10 12 7 8 -4 15 -1 15 5 0 6 12 16 28 21
48 18 69 31 69 44 0 8 -8 11 -19 8 -10 -2 -18 1 -18 7 0 18 -17 12 -23 -8z"/>
<path d="M11500 10080 c-11 -7 -5 -10 23 -10 23 0 36 4 32 10 -8 13 -35 13
-55 0z"/>
<path d="M12250 10049 c-27 -52 -20 -75 8 -29 20 32 29 70 17 70 -2 0 -14 -18
-25 -41z"/>
<path d="M6380 10064 c0 -9 5 -14 12 -12 18 6 21 28 4 28 -9 0 -16 -7 -16 -16z"/>
<path d="M11040 10064 c0 -8 5 -12 10 -9 6 3 10 10 10 16 0 5 -4 9 -10 9 -5 0
-10 -7 -10 -16z"/>
<path d="M11128 10073 c7 -3 16 -2 19 1 4 3 -2 6 -13 5 -11 0 -14 -3 -6 -6z"/>
<path d="M11348 10073 c7 -3 16 -2 19 1 4 3 -2 6 -13 5 -11 0 -14 -3 -6 -6z"/>
<path d="M5285 10051 c-3 -10 -15 -21 -27 -25 -12 -3 -20 -8 -17 -11 3 -3 21
1 40 9 19 9 30 15 25 16 -5 0 -3 7 4 15 10 12 10 15 -3 15 -9 0 -18 -9 -22
-19z"/>
<path d="M8558 10053 c7 -3 16 -2 19 1 4 3 -2 6 -13 5 -11 0 -14 -3 -6 -6z"/>
<path d="M12296 10038 c-9 -12 -16 -28 -16 -34 0 -6 -11 -27 -24 -47 -24 -35
-24 -47 0 -47 13 0 44 54 44 77 0 7 7 16 15 19 17 7 20 39 6 49 -5 3 -17 -5
-25 -17z"/>
<path d="M8233 10033 c-18 -9 -35 -23 -37 -30 -4 -9 4 -7 20 6 15 12 33 21 40
21 7 0 16 5 19 10 9 14 -4 12 -42 -7z"/>
<path d="M11120 10040 c0 -5 5 -10 11 -10 5 0 7 5 4 10 -3 6 -8 10 -11 10 -2
0 -4 -4 -4 -10z"/>
<path d="M6347 10017 c-13 -15 -20 -18 -23 -9 -3 6 -10 10 -15 6 -12 -7 8 -45
33 -62 10 -7 18 -20 18 -28 0 -16 16 -19 25 -5 3 5 -2 16 -10 24 -17 18 -20
53 -5 62 12 7 14 35 3 35 -5 -1 -16 -11 -26 -23z"/>
<path d="M2285 10020 c-3 -6 1 -7 9 -4 18 7 21 14 7 14 -6 0 -13 -4 -16 -10z"/>
<path d="M9256 9989 c-10 -17 -15 -33 -11 -37 8 -8 44 37 45 56 0 21 -15 13
-34 -19z"/>
<path d="M11043 10008 c3 -9 1 -19 -6 -21 -9 -3 -9 -7 0 -17 9 -9 13 -8 22 8
8 16 7 23 -6 33 -15 12 -16 12 -10 -3z"/>
<path d="M2171 9997 c-12 -15 -10 -91 2 -104 5 -4 5 1 1 11 -6 15 -4 17 6 11
10 -6 12 -4 6 10 -4 12 1 26 15 41 21 23 19 44 -5 44 -8 0 -19 -6 -25 -13z"/>
<path d="M2230 10003 c0 -5 5 -15 10 -23 8 -12 10 -11 10 8 0 12 -4 22 -10 22
-5 0 -10 -3 -10 -7z"/>
<path d="M2216 9963 c-6 -14 -5 -15 5 -6 7 7 10 15 7 18 -3 3 -9 -2 -12 -12z"/>
<path d="M6284 9966 c-6 -16 11 -46 26 -46 10 0 0 49 -11 56 -5 3 -12 -2 -15
-10z"/>
<path d="M12570 9952 c0 -4 6 -14 13 -21 10 -11 9 -13 -6 -8 -24 9 -31 -12
-19 -54 8 -26 10 -29 11 -11 1 13 5 21 10 18 4 -3 6 -16 4 -29 -4 -18 4 -31
29 -52 21 -18 32 -36 31 -49 -3 -20 -2 -20 5 -2 8 19 9 18 15 -5 10 -34 8 -46
-3 -29 -8 12 -10 11 -10 -8 0 -13 11 -34 25 -48 14 -14 25 -27 25 -30 0 -3 9
-18 19 -33 10 -14 21 -37 24 -51 4 -23 4 -23 6 4 0 16 -8 43 -19 61 -25 40
-62 144 -55 155 3 4 0 22 -6 39 -12 33 -42 56 -60 45 -6 -3 -9 0 -8 7 1 8 -2
23 -6 33 -5 12 -5 21 2 23 7 3 7 11 -1 28 -11 24 -26 34 -26 17z m100 -186 c0
-18 -17 8 -24 34 l-7 25 15 -25 c9 -14 15 -29 16 -34z"/>
<path d="M206 9931 c-13 -14 -14 -20 -5 -23 8 -3 10 -11 4 -24 -4 -10 -7 -25
-6 -33 1 -7 -2 -10 -8 -7 -13 8 -51 -11 -51 -25 0 -6 5 -7 11 -3 8 4 9 -1 4
-17 -10 -34 -29 -51 -21 -19 6 21 5 22 -4 7 -6 -9 -8 -21 -5 -26 6 -10 -40
-133 -62 -166 -7 -11 -12 -33 -12 -50 2 -27 2 -27 6 -5 3 14 14 37 24 51 10
15 19 30 19 33 0 3 11 16 25 30 14 14 25 35 25 48 0 19 -2 20 -10 8 -11 -17
-13 -5 -3 29 6 23 7 24 15 5 7 -18 8 -18 5 2 -1 13 10 31 31 49 25 21 33 34
29 52 -2 13 0 26 4 29 5 3 9 -5 10 -18 1 -16 4 -10 11 16 9 33 8 41 -5 51 -9
7 -14 15 -10 18 3 4 4 7 1 7 -3 0 -13 -9 -22 -19z"/>
<path d="M3304 9942 c-11 -7 -34 -46 -34 -57 0 -12 40 16 50 35 11 20 1 33
-16 22z"/>
<path d="M8102 9904 c-12 -24 -20 -44 -18 -44 7 0 47 72 44 80 -2 4 -13 -12
-26 -36z"/>
<path d="M12195 9930 c-3 -5 -1 -10 4 -10 6 0 11 5 11 10 0 6 -2 10 -4 10 -3
0 -8 -4 -11 -10z"/>
<path d="M9220 9915 c-15 -19 -11 -25 12 -16 11 4 14 11 9 19 -6 10 -10 10
-21 -3z"/>
<path d="M5000 9901 c0 -11 -9 -23 -21 -26 -15 -5 -17 -10 -9 -20 15 -18 15
-334 1 -348 -6 -6 -11 -20 -11 -31 1 -21 1 -21 13 -1 6 11 12 22 12 25 0 3 7
16 14 29 15 26 22 264 10 319 -6 29 -4 34 17 42 31 12 31 30 -1 30 -18 0 -25
-5 -25 -19z"/>
<path d="M10880 9910 c0 -5 5 -10 10 -10 6 0 10 5 10 10 0 6 -4 10 -10 10 -5
0 -10 -4 -10 -10z"/>
<path d="M308 9905 c-3 -6 -11 -29 -17 -51 -7 -25 -21 -48 -36 -58 -33 -22
-32 -36 5 -36 18 0 30 5 30 13 0 7 9 20 20 30 11 9 20 27 19 39 -2 36 -14 74
-21 63z"/>
<path d="M12476 9879 c-7 -39 1 -76 20 -83 8 -3 14 -12 14 -21 0 -10 10 -15
30 -15 37 0 38 14 5 36 -16 11 -29 33 -36 60 -14 55 -25 63 -33 23z"/>
<path d="M2077 9886 c-4 -9 -4 -23 0 -33 5 -14 8 -12 15 7 5 13 5 27 0 32 -6
6 -12 3 -15 -6z"/>
<path d="M2132 9878 c-7 -7 -12 -25 -12 -40 0 -24 2 -27 14 -16 8 7 10 16 4
19 -5 3 -2 12 7 19 16 13 20 30 7 30 -4 0 -13 -5 -20 -12z"/>
<path d="M3332 9870 c3 -27 28 -34 36 -10 3 8 1 12 -3 8 -4 -4 -14 0 -22 10
-12 16 -13 15 -11 -8z"/>
<path d="M8020 9870 c0 -11 7 -20 15 -20 8 0 15 9 15 20 0 11 -7 20 -15 20 -8
0 -15 -9 -15 -20z"/>
<path d="M9174 9855 c-9 -14 -14 -28 -10 -32 8 -9 46 27 46 44 0 21 -18 15
-36 -12z"/>
<path d="M10961 9869 c-41 -16 -59 -99 -21 -99 15 0 20 7 21 28 0 24 1 25 9 7
7 -17 9 -16 9 9 1 28 2 29 16 10 13 -17 14 -17 15 -1 0 9 4 17 10 17 6 0 6 -9
0 -26 -6 -14 -10 -37 -9 -52 1 -21 3 -17 9 13 5 22 9 45 10 50 1 6 2 19 1 31
-1 21 -31 27 -70 13z"/>
<path d="M11045 9870 c-3 -5 -1 -10 4 -10 6 0 11 5 11 10 0 6 -2 10 -4 10 -3
0 -8 -4 -11 -10z"/>
<path d="M3246 9855 c4 -8 10 -12 15 -9 14 8 10 24 -6 24 -9 0 -12 -6 -9 -15z"/>
<path d="M6222 9846 c2 -15 8 -26 13 -26 15 0 12 43 -3 48 -10 3 -13 -4 -10
-22z"/>
<path d="M9231 9831 c-9 -17 -8 -22 9 -31 11 -6 20 -17 20 -25 0 -8 5 -15 10
-15 18 0 11 56 -9 74 -19 17 -20 17 -30 -3z"/>
<path d="M12131 9834 c0 -11 3 -14 6 -6 3 7 2 16 -1 19 -3 4 -6 -2 -5 -13z"/>
<path d="M7999 9833 c0 -5 -2 -16 -4 -25 -2 -10 1 -20 6 -24 5 -3 9 1 9 10 0
8 3 21 6 30 3 9 1 16 -5 16 -6 0 -11 -3 -12 -7z"/>
<path d="M8048 9813 c5 -21 7 -23 10 -9 2 10 0 22 -6 28 -6 6 -7 0 -4 -19z"/>
<path d="M2090 9820 c0 -5 5 -10 10 -10 6 0 10 5 10 10 0 6 -4 10 -10 10 -5 0
-10 -4 -10 -10z"/>
<path d="M3202 9810 c-7 -14 -19 -35 -28 -47 -23 -32 -3 -29 25 3 13 15 21 35
18 47 -3 21 -4 21 -15 -3z"/>
<path d="M3270 9814 c0 -9 9 -18 20 -21 11 -3 20 -12 20 -19 0 -8 7 -14 15
-14 19 0 20 19 1 26 -8 3 -16 14 -19 25 -6 23 -37 26 -37 3z"/>
<path d="M5041 9794 c0 -11 3 -14 6 -6 3 7 2 16 -1 19 -3 4 -6 -2 -5 -13z"/>
<path d="M6190 9795 c-7 -8 -19 -15 -27 -15 -10 0 -13 -6 -9 -16 4 -9 -8 -29
-30 -52 -23 -23 -38 -32 -41 -25 -6 17 -38 -14 -38 -36 0 -9 -9 -16 -21 -17
-12 -1 -32 -9 -45 -19 -19 -14 -20 -16 -4 -10 11 4 29 10 40 13 27 7 46 22 55
47 8 19 9 19 9 -3 1 -31 36 -26 36 5 1 28 34 60 58 55 12 -2 20 4 24 17 3 12
13 21 24 21 22 0 23 8 5 33 -16 21 -20 21 -36 2z"/>
<path d="M12135 9781 c-7 -33 10 -75 26 -65 14 8 7 86 -8 91 -6 2 -14 -9 -18
-26z"/>
<path d="M2089 9800 c-6 -25 -6 -60 0 -60 13 0 20 36 10 51 -5 8 -9 12 -10 9z"/>
<path d="M8012 9775 c-7 -14 -12 -31 -11 -38 0 -7 4 -3 9 8 8 18 9 17 9 -8 1
-16 -4 -38 -10 -50 -9 -20 -9 -21 4 -4 11 14 16 15 20 5 3 -7 4 7 1 32 -4 33
-3 41 5 30 9 -13 11 -13 11 2 0 22 -10 48 -19 48 -4 0 -13 -11 -19 -25z"/>
<path d="M9117 9776 c-4 -10 -1 -13 9 -9 7 3 14 9 14 14 0 14 -17 10 -23 -5z"/>
<path d="M12077 9779 c-9 -6 -15 -15 -11 -20 6 -11 -43 -69 -57 -69 -9 0 -59
-48 -59 -56 0 -11 37 -53 42 -48 3 2 16 7 28 9 36 7 36 14 2 27 -40 16 -38 42
3 46 43 5 67 30 64 67 -2 17 0 36 5 43 9 14 7 15 -17 1z"/>
<path d="M3230 9765 c0 -8 7 -15 15 -15 8 0 15 7 15 15 0 8 -7 15 -15 15 -8 0
-15 -7 -15 -15z"/>
<path d="M9182 9768 c6 -18 28 -21 28 -4 0 9 -7 16 -16 16 -9 0 -14 -5 -12
-12z"/>
<path d="M10988 9769 c-4 -9 -4 -35 -1 -58 7 -49 -14 -122 -32 -115 -14 6 -9
-43 6 -52 5 -3 9 -14 9 -25 0 -18 46 -46 57 -35 10 10 5 68 -7 79 -10 10 -11
6 -6 -18 5 -27 4 -26 -14 9 -14 27 -17 43 -10 55 8 13 9 12 10 -9 0 -19 3 -21
9 -11 5 8 6 24 0 37 -4 13 -7 41 -5 61 4 49 -7 104 -16 82z"/>
<path d="M9086 9752 c-3 -6 -1 -14 5 -17 15 -10 25 3 12 16 -7 7 -13 7 -17 1z"/>
<path d="M10908 9754 c-11 -11 -10 -154 1 -154 6 0 12 3 15 8 7 12 -8 154 -16
146z"/>
<path d="M2103 9690 c0 -25 2 -35 4 -22 2 12 2 32 0 45 -2 12 -4 2 -4 -23z"/>
<path d="M5062 9688 c-1 -25 -5 -55 -8 -65 -5 -14 -4 -15 5 -7 8 7 11 31 8 65
l-3 54 -2 -47z"/>
<path d="M3107 9692 c-33 -35 -34 -48 -2 -54 20 -4 24 -1 22 16 -2 16 3 20 20
19 15 -2 20 2 18 15 -2 9 -4 20 -4 25 -2 16 -29 6 -54 -21z"/>
<path d="M5043 9680 c0 -25 2 -35 4 -22 2 12 2 32 0 45 -2 12 -4 2 -4 -23z"/>
<path d="M9028 9690 c-15 -15 -24 -30 -21 -34 11 -11 21 -6 26 14 3 11 12 20
21 20 9 0 16 4 16 9 0 21 -16 17 -42 -9z"/>
<path d="M6211 9691 c-6 -11 -11 -26 -11 -33 0 -8 -15 -18 -32 -23 -18 -6 -33
-14 -33 -20 0 -5 15 -11 33 -13 27 -3 32 0 32 17 0 14 6 21 20 21 15 0 20 7
20 29 0 37 -15 48 -29 22z"/>
<path d="M9090 9685 c-7 -14 -11 -28 -8 -31 9 -9 50 35 43 46 -10 16 -21 11
-35 -15z"/>
<path d="M12140 9674 c-13 -33 -13 -34 5 -34 10 0 15 10 15 30 0 37 -7 38 -20
4z"/>
<path d="M2083 9646 c4 -22 2 -45 -2 -50 -6 -7 -4 -19 5 -30 12 -17 13 -13 9
44 -3 35 -8 66 -11 69 -4 3 -4 -12 -1 -33z"/>
<path d="M8021 9635 c-1 -22 -3 -58 -6 -80 -5 -40 -5 -40 5 -7 14 43 19 41 17
-7 -1 -25 5 -47 16 -59 9 -10 17 -24 17 -30 0 -7 4 -12 10 -12 6 0 5 -10 -2
-25 -9 -21 -8 -28 7 -45 10 -11 24 -20 30 -20 16 0 27 27 15 35 -6 4 -10 11
-10 17 0 6 7 5 18 -3 15 -13 16 -12 4 2 -7 10 -21 15 -32 12 -20 -5 -28 11
-10 22 6 4 5 15 -2 30 -6 13 -15 22 -19 19 -5 -3 -10 2 -10 10 -1 9 -2 19 -4
24 -1 4 -5 19 -9 33 -4 14 -9 32 -10 40 -2 8 -6 21 -9 29 -3 8 -8 24 -10 35
-3 11 -5 2 -6 -20z m90 -262 c13 -16 12 -17 -3 -4 -17 13 -22 21 -14 21 2 0
10 -8 17 -17z"/>
<path d="M3180 9640 c0 -13 -7 -20 -20 -20 -11 0 -20 -7 -20 -15 0 -8 9 -15
20 -15 11 0 20 7 20 15 0 8 7 15 15 15 8 0 15 9 15 20 0 11 -7 20 -15 20 -8 0
-15 -9 -15 -20z"/>
<path d="M140 9584 c0 -30 -4 -53 -9 -50 -11 7 -24 -59 -16 -84 11 -36 25 -21
25 28 0 26 4 52 9 58 5 5 12 30 16 57 6 39 5 47 -9 47 -13 0 -16 -11 -16 -56z"/>
<path d="M3035 9630 c-3 -5 1 -10 9 -10 9 0 16 5 16 10 0 6 -4 10 -9 10 -6 0
-13 -4 -16 -10z"/>
<path d="M9040 9629 c0 -8 -13 -9 -38 -5 -30 4 -43 1 -58 -13 -11 -10 -26 -20
-34 -23 -12 -5 -12 -7 2 -13 17 -7 48 14 48 33 0 5 7 9 15 9 8 0 15 -4 15 -8
0 -17 43 -16 61 2 23 23 24 29 4 29 -8 0 -15 -5 -15 -11z"/>
<path d="M12634 9594 c4 -27 12 -53 17 -58 5 -6 9 -32 9 -58 0 -49 14 -64 25
-28 7 22 -2 79 -15 95 -5 6 -10 28 -12 49 -2 22 -9 41 -17 44 -11 4 -12 -5 -7
-44z"/>
<path d="M12083 9620 c-31 -13 -29 -20 7 -20 20 0 30 5 30 15 0 17 -5 18 -37
5z"/>
<path d="M9100 9610 c0 -5 5 -10 10 -10 6 0 10 5 10 10 0 6 -4 10 -10 10 -5 0
-10 -4 -10 -10z"/>
<path d="M5060 9584 c0 -8 -4 -13 -8 -10 -5 3 -6 -9 -4 -26 3 -21 7 -26 13
-17 5 8 9 10 9 5 0 -5 -7 -17 -15 -26 -14 -15 -13 -20 6 -44 25 -32 33 -29 19
8 -9 24 -8 26 9 16 29 -15 31 -13 15 18 -7 15 -17 42 -20 60 -6 32 -24 45 -24
16z"/>
<path d="M2950 9559 c-19 -16 -43 -29 -53 -29 -10 0 -16 -4 -12 -10 3 -5 33
-7 70 -3 51 5 65 3 65 -8 0 -10 2 -11 13 0 10 10 9 15 -5 25 -10 7 -15 15 -13
18 3 3 -3 12 -12 20 -17 15 -21 14 -53 -13z"/>
<path d="M8946 9573 c-9 -9 -7 -33 3 -33 12 0 22 28 12 34 -5 3 -11 3 -15 -1z"/>
<path d="M11906 9571 c-4 -7 -5 -15 -2 -18 9 -9 19 4 14 18 -4 11 -6 11 -12 0z"/>
<path d="M10880 9532 c0 -34 3 -40 16 -35 11 4 14 13 9 32 -11 46 -25 48 -25
3z"/>
<path d="M2107 9527 c-8 -29 9 -87 25 -87 11 0 10 14 -1 26 -5 5 -11 27 -13
49 -3 38 -3 39 -11 12z"/>
<path d="M11785 9530 c-3 -5 -3 -20 0 -33 5 -18 1 -26 -20 -35 -21 -10 -25
-17 -19 -34 5 -16 3 -20 -9 -15 -12 4 -14 2 -10 -10 5 -12 2 -15 -10 -10 -12
4 -14 2 -10 -10 5 -13 2 -15 -13 -9 -14 5 -16 4 -8 -4 9 -9 17 -9 32 -1 30 16
39 14 16 -4 -22 -17 -12 -20 17 -5 11 6 19 21 19 36 0 14 10 40 23 57 31 45
46 75 39 81 -9 9 -40 7 -47 -4z"/>
<path d="M2131 9513 c-1 -12 4 -25 9 -28 12 -7 12 2 0 30 -8 19 -9 19 -9 -2z"/>
<path d="M12747 9489 c4 -13 8 -18 11 -10 2 7 -1 18 -6 23 -8 8 -9 4 -5 -13z"/>
<path d="M41 9484 c0 -11 3 -14 6 -6 3 7 2 16 -1 19 -3 4 -6 -2 -5 -13z"/>
<path d="M8806 9491 c-4 -7 -5 -15 -2 -18 9 -9 19 4 14 18 -4 11 -6 11 -12 0z"/>
<path d="M2856 9475 c-3 -9 -4 -20 -1 -25 3 -4 -6 -15 -20 -24 -24 -16 -36
-66 -16 -66 5 0 16 -2 24 -5 7 -3 14 0 14 7 1 7 2 35 4 62 2 40 4 46 14 32 14
-18 115 -24 115 -6 0 6 -25 10 -55 10 -39 0 -56 4 -63 16 -8 15 -10 15 -16 -1z
m-6 -67 c0 -7 -4 -19 -9 -27 -11 -17 -23 1 -15 23 7 19 24 21 24 4z"/>
<path d="M3020 9480 c0 -5 5 -10 10 -10 6 0 10 5 10 10 0 6 -4 10 -10 10 -5 0
-10 -4 -10 -10z"/>
<path d="M10933 9483 c-24 -9 -14 -40 13 -46 30 -5 43 15 24 38 -13 16 -17 17
-37 8z"/>
<path d="M11831 9480 c-1 -23 15 -45 23 -31 4 6 3 11 -3 11 -5 0 -12 8 -14 18
-3 12 -5 13 -6 2z"/>
<path d="M5850 9470 c0 -6 -5 -8 -10 -5 -12 7 -40 -12 -40 -26 0 -5 5 -9 10
-9 6 0 9 5 8 11 -2 6 3 14 10 16 6 3 12 0 12 -5 0 -14 -40 -62 -52 -62 -6 0
-6 6 2 15 9 10 9 15 1 15 -6 0 -12 -4 -12 -10 -1 -5 -2 -14 -3 -19 0 -6 -7
-16 -14 -23 -11 -11 -12 -10 -6 7 7 17 6 18 -8 5 -22 -21 -13 -30 28 -30 42 0
74 29 74 69 0 24 3 28 20 24 11 -3 20 0 20 5 0 6 -9 16 -20 22 -14 8 -20 8
-20 0z"/>
<path d="M11047 9473 c-10 -17 -4 -64 8 -60 13 6 55 -34 74 -70 15 -28 31 -30
24 -3 -3 11 -9 20 -14 20 -5 0 -8 3 -7 8 3 10 -43 57 -64 65 -10 3 -18 11 -18
17 0 6 4 8 10 5 6 -3 7 1 4 9 -7 18 -11 20 -17 9z"/>
<path d="M2149 9453 c-3 -46 4 -78 19 -90 20 -14 46 -17 37 -4 -3 5 -1 12 5
16 5 3 10 1 10 -5 0 -6 4 -8 10 -5 6 4 5 11 -3 20 -10 11 -15 11 -34 -1 -13
-8 -23 -10 -23 -4 0 5 4 10 9 10 5 0 12 7 15 16 4 9 2 13 -5 8 -6 -4 -15 0
-20 7 -12 19 -11 32 1 24 6 -3 7 1 4 9 -8 21 -24 20 -25 -1z"/>
<path d="M5020 9455 c0 -8 7 -15 15 -15 8 0 15 7 15 15 0 8 -7 15 -15 15 -8 0
-15 -7 -15 -15z"/>
<path d="M8762 9434 c-12 -19 -19 -34 -14 -34 4 0 16 12 26 28 9 15 15 19 12
10 -3 -10 -1 -20 4 -23 6 -4 10 5 10 19 0 38 -13 38 -38 0z"/>
<path d="M8847 9463 c-32 -5 -32 -26 0 -31 14 -2 22 4 26 17 3 12 4 20 4 20
-1 -1 -15 -4 -30 -6z"/>
<path d="M8936 9463 c-3 -3 -3 -10 0 -14 7 -12 34 -11 34 0 0 11 -26 22 -34
14z"/>
<path d="M30 9453 c0 -5 4 -14 9 -21 7 -11 9 -11 14 1 3 8 3 18 0 21 -9 8 -23
7 -23 -1z"/>
<path d="M5131 9452 c-1 -7 -5 -10 -11 -7 -5 3 -10 -1 -10 -9 0 -9 5 -16 11
-16 6 0 9 -7 5 -15 -5 -13 -2 -14 15 -5 14 8 17 15 11 23 -5 7 -12 19 -15 27
-4 10 -6 11 -6 2z"/>
<path d="M12747 9454 c-3 -3 -3 -13 0 -21 5 -12 7 -12 14 -1 15 23 4 40 -14
22z"/>
<path d="M74 8647 c1 -635 4 -801 14 -805 10 -3 12 157 12 800 -1 664 -3 805
-14 805 -11 0 -13 -140 -12 -800z"/>
<path d="M2087 9443 c-10 -9 -9 -23 1 -23 5 0 9 7 9 15 0 17 -1 18 -10 8z"/>
<path d="M12700 8645 c0 -610 3 -804 12 -813 9 -9 4 -12 -24 -12 -20 0 -39 6
-41 13 -4 10 -6 10 -6 0 -1 -10 -551 -13 -2723 -11 l-2723 3 2720 5 2720 5
-2760 1 c-1518 1 -2746 -2 -2730 -6 17 -4 26 -9 20 -11 -5 -2 1225 -6 2735 -9
l2745 -5 -2810 -2 c-1817 -2 -2805 1 -2795 7 10 6 -1209 10 -3448 10 -2306 0
-3461 -3 -3457 -10 4 -6 -5 -10 -19 -10 -14 0 -25 5 -24 11 2 6 -7 15 -19 20
-20 7 -23 5 -23 -16 l0 -25 6349 -2 c5877 -3 6350 -2 6354 13 3 9 1 23 -4 30
-7 12 -9 12 -9 0 0 -8 -2 -12 -4 -10 -3 3 -6 369 -7 815 -2 669 -5 811 -16
811 -11 0 -13 -139 -13 -802z m-7 -842 c-7 -2 -19 -2 -25 0 -7 3 -2 5 12 5 14
0 19 -2 13 -5z"/>
<path d="M5900 9412 c0 -16 -3 -44 -6 -61 -5 -24 -3 -31 10 -31 13 0 16 11 16
50 0 28 0 53 1 57 0 4 -4 9 -10 11 -6 2 -11 -9 -11 -26z"/>
<path d="M7998 9393 c-5 -59 -2 -70 23 -76 10 -3 19 -12 19 -20 0 -21 17 -24
85 -17 54 6 61 14 10 11 -50 -3 -130 80 -122 127 2 12 1 22 -3 22 -5 0 -10
-21 -12 -47z"/>
<path d="M5157 9403 c-21 -20 8 -48 37 -37 12 5 11 9 -5 25 -21 21 -23 22 -32
12z"/>
<path d="M35 8625 c0 -429 1 -603 2 -387 2 217 2 568 0 780 -1 213 -2 36 -2
-393z"/>
<path d="M11042 9388 c-17 -17 -15 -48 3 -48 8 0 15 -6 15 -14 0 -8 9 -18 20
-21 11 -3 20 -13 20 -21 0 -15 12 -17 49 -7 22 5 20 7 -17 24 -38 18 -72 52
-72 72 0 4 6 5 13 1 8 -5 8 -2 -2 9 -16 20 -14 20 -29 5z"/>
<path d="M12765 8615 c0 -434 1 -611 2 -392 2 219 2 575 0 790 -1 216 -2 37
-2 -398z"/>
<path d="M2077 9383 c-17 -16 -6 -54 18 -63 14 -5 25 -17 25 -25 0 -20 24 -29
45 -18 13 8 12 11 -9 22 -14 8 -30 26 -36 42 -14 32 -34 52 -43 42z"/>
<path d="M2789 9383 c-1 -5 -1 -11 0 -15 0 -3 -13 -11 -29 -17 -32 -11 -42
-26 -11 -16 22 7 35 -27 18 -44 -14 -14 -2 -14 24 -1 15 8 19 7 19 -5 0 -8 9
-15 20 -15 11 0 20 7 20 15 0 8 -6 15 -14 15 -20 0 -46 44 -41 69 2 12 2 21
-1 21 -2 0 -5 -3 -5 -7z"/>
<path d="M2871 9374 c0 -11 3 -14 6 -6 3 7 2 16 -1 19 -3 4 -6 -2 -5 -13z"/>
<path d="M8730 9379 c0 -5 -4 -8 -9 -5 -17 11 -30 -18 -14 -33 13 -12 14 -11
8 9 -5 14 -3 20 3 16 13 -8 42 3 42 15 0 5 -7 9 -15 9 -8 0 -15 -5 -15 -11z"/>
<path d="M8794 9377 c4 -11 2 -16 -5 -12 -12 8 -49 -23 -49 -42 0 -7 9 -13 20
-13 13 0 20 -7 20 -20 0 -22 15 -27 26 -8 4 6 0 16 -9 23 -21 15 -22 45 -2 45
18 0 19 9 4 30 -9 13 -10 12 -5 -3z"/>
<path d="M11791 9330 c-39 -46 -42 -57 -14 -56 20 2 73 56 73 75 0 36 -17 31
-59 -19z"/>
<path d="M12736 9365 c-3 -9 -6 -22 -5 -28 0 -7 5 -1 10 12 5 13 8 26 5 28 -2
2 -6 -3 -10 -12z"/>
<path d="M127 9363 c-4 -3 -6 -346 -5 -762 l2 -756 6 760 c3 418 5 761 4 763
0 1 -4 -1 -7 -5z"/>
<path d="M5118 9358 c-6 -17 1 -38 13 -38 5 0 9 11 9 25 0 26 -14 34 -22 13z"/>
<path d="M8156 9355 c4 -8 12 -15 20 -15 17 0 18 -16 2 -24 -7 -3 1 -3 19 0
25 4 32 1 38 -15 7 -22 17 -25 48 -12 14 5 5 13 -45 36 -35 17 -64 33 -66 38
-7 14 -21 7 -16 -8z"/>
<path d="M12660 8611 c0 -514 3 -761 10 -761 14 0 13 1507 -1 1515 -5 4 -9
-282 -9 -754z"/>
<path d="M2246 9353 c-3 -3 -6 -13 -6 -22 0 -13 2 -13 9 -3 7 11 16 10 47 -7
23 -13 31 -21 21 -21 -10 0 -27 5 -37 10 -13 7 -21 7 -25 0 -4 -6 -10 -8 -15
-5 -5 3 -20 1 -32 -6 -22 -12 -22 -12 -3 -20 28 -11 75 -11 75 0 0 5 -6 12
-12 14 -10 4 -10 6 0 6 7 1 21 -3 30 -8 12 -6 23 -5 35 4 17 12 17 14 -5 20
-13 4 -35 16 -49 26 -14 10 -29 16 -33 12z"/>
<path d="M5204 9315 c0 -50 7 -54 35 -26 19 19 19 20 -6 36 -20 14 -23 19 -12
26 11 7 11 9 -2 9 -12 0 -16 -10 -15 -45z m26 -5 c0 -5 -4 -10 -10 -10 -5 0
-10 5 -10 10 0 6 5 10 10 10 6 0 10 -4 10 -10z"/>
<path d="M11659 9353 c-1 -5 -1 -12 0 -17 2 -12 -31 -35 -52 -36 -10 0 -15 4
-12 10 3 5 -15 2 -40 -8 -25 -9 -42 -18 -36 -20 5 -2 19 1 30 7 26 14 44 14
35 -1 -5 -8 -2 -9 9 -5 10 3 17 2 17 -3 0 -6 5 -10 10 -10 6 0 10 6 10 14 0 8
7 17 16 20 21 8 33 -2 16 -13 -8 -5 -1 -8 18 -8 16 0 30 4 30 9 0 4 -4 8 -9 8
-5 0 -14 14 -20 30 -9 29 -20 39 -22 23z"/>
<path d="M5696 9331 c-10 -11 -25 -17 -34 -14 -9 4 -13 2 -9 -4 4 -6 1 -14 -5
-16 -9 -4 -8 -6 3 -6 8 -1 20 4 26 10 14 14 63 0 63 -18 0 -12 7 -14 31 -9 17
3 49 6 70 6 27 0 39 4 39 14 0 11 -15 13 -70 10 -63 -3 -90 6 -57 20 6 3 -1 2
-18 -1 -27 -6 -29 -5 -16 10 19 24 -2 21 -23 -2z"/>
<path d="M2860 9325 c0 -8 7 -15 15 -15 8 0 15 7 15 15 0 8 -7 15 -15 15 -8 0
-15 -7 -15 -15z"/>
<path d="M5264 9323 l29 -15 -24 -15 -24 -14 25 7 c14 4 31 9 38 12 7 2 12 -1
10 -9 -2 -7 5 -15 15 -17 35 -7 15 18 -34 42 -55 28 -82 35 -35 9z"/>
<path d="M8630 9319 c-19 -10 -40 -19 -47 -19 -6 0 -19 -7 -28 -16 -13 -13
-37 -16 -126 -16 -60 0 -109 -3 -109 -8 0 -9 233 -11 240 -1 5 6 100 41 113
41 4 0 6 -6 5 -12 -2 -8 9 -14 25 -16 23 -3 28 0 25 15 -2 12 -11 17 -24 15
-12 -1 -27 5 -35 14 -12 15 -11 16 11 10 19 -6 21 -5 10 3 -19 13 -18 14 -60
-10z"/>
<path d="M11166 9324 c-9 -23 -8 -24 17 -24 32 0 54 15 33 23 -9 4 -16 2 -16
-4 0 -6 -5 -7 -10 -4 -6 4 -8 11 -5 16 4 5 2 9 -3 9 -6 0 -13 -7 -16 -16z"/>
<path d="M11615 9330 c-3 -5 -2 -10 4 -10 5 0 13 5 16 10 3 6 2 10 -4 10 -5 0
-13 -4 -16 -10z"/>
<path d="M2704 9321 c-5 -3 -11 -15 -12 -26 -3 -16 -1 -18 9 -7 7 6 21 12 31
12 10 0 18 4 18 9 0 11 -35 21 -46 12z"/>
<path d="M2652 9303 c-6 -2 -10 -9 -7 -14 4 -5 -1 -6 -9 -3 -9 3 -16 1 -16 -5
0 -6 -19 -11 -46 -11 -27 0 -43 -4 -39 -10 3 -5 27 -10 52 -10 36 0 51 5 69
26 32 33 31 41 -4 27z"/>
<path d="M11228 9302 c-10 -2 -18 -8 -18 -13 0 -6 9 -7 21 -4 15 5 19 4 14 -5
-5 -8 0 -11 16 -8 13 1 23 7 22 13 -2 12 -34 22 -55 17z"/>
<path d="M2350 9290 c-9 -6 -10 -10 -3 -10 6 0 15 5 18 10 8 12 4 12 -15 0z"/>
<path d="M5120 9290 c0 -5 5 -10 10 -10 6 0 10 5 10 10 0 6 -4 10 -10 10 -5 0
-10 -4 -10 -10z"/>
<path d="M11032 9288 c6 -18 28 -21 28 -4 0 9 -7 16 -16 16 -9 0 -14 -5 -12
-12z"/>
<path d="M2388 9283 c7 -3 16 -2 19 1 4 3 -2 6 -13 5 -11 0 -14 -3 -6 -6z"/>
<path d="M5360 9270 c0 -18 6 -19 69 -18 38 0 75 4 82 9 7 4 1 7 -17 6 -69 -3
-125 3 -119 13 3 6 1 10 -4 10 -6 0 -11 -9 -11 -20z"/>
<path d="M2400 9260 c0 -6 26 -10 58 -10 40 0 53 3 42 10 -20 13 -100 13 -100
0z"/>
<path d="M11360 9260 c0 -5 5 -10 10 -10 6 0 10 5 10 10 0 6 -4 10 -10 10 -5
0 -10 -4 -10 -10z"/>
<path d="M11420 9260 c0 -5 23 -10 50 -10 28 0 50 5 50 10 0 6 -22 10 -50 10
-27 0 -50 -4 -50 -10z"/>
<path d="M2530 9230 c-12 -8 -11 -10 8 -10 12 0 22 5 22 10 0 13 -11 13 -30 0z"/>
<path d="M5440 9230 c0 -5 5 -10 10 -10 6 0 10 5 10 10 0 6 -4 10 -10 10 -5 0
-10 -4 -10 -10z"/>
<path d="M5500 9230 c0 -5 5 -10 10 -10 6 0 10 5 10 10 0 6 -4 10 -10 10 -5 0
-10 -4 -10 -10z"/>
<path d="M8400 9230 c0 -5 5 -10 10 -10 6 0 10 5 10 10 0 6 -4 10 -10 10 -5 0
-10 -4 -10 -10z"/>
<path d="M8460 9230 c0 -5 5 -10 10 -10 6 0 10 5 10 10 0 6 -4 10 -10 10 -5 0
-10 -4 -10 -10z"/>
<path d="M11380 9230 c0 -5 9 -10 20 -10 11 0 20 5 20 10 0 6 -9 10 -20 10
-11 0 -20 -4 -20 -10z"/>
<path d="M2508 9203 c7 -3 16 -2 19 1 4 3 -2 6 -13 5 -11 0 -14 -3 -6 -6z"/>
<path d="M5468 9203 c6 -2 18 -2 25 0 6 3 1 5 -13 5 -14 0 -19 -2 -12 -5z"/>
<path d="M8428 9203 c6 -2 18 -2 25 0 6 3 1 5 -13 5 -14 0 -19 -2 -12 -5z"/>
<path d="M12771 7804 c0 -11 3 -14 6 -6 3 7 2 16 -1 19 -3 4 -6 -2 -5 -13z"/>
<path d="M11082 3628 c-51 -11 -49 -18 4 -23 25 -2 33 0 23 6 -9 5 41 8 131 8
82 0 136 -4 125 -8 -17 -7 -16 -9 13 -15 20 -5 38 -3 46 3 7 6 22 8 32 5 11
-4 16 -4 12 0 -27 30 -287 46 -386 24z"/>
<path d="M10985 3601 c6 -11 3 -13 -13 -9 -12 4 -26 0 -33 -8 -7 -9 -8 -14 -1
-14 6 0 12 3 15 8 2 4 2 1 1 -5 -5 -18 43 -16 49 1 3 8 -2 20 -11 28 -13 11
-14 11 -7 -1z"/>
<path d="M11168 3593 c7 -3 16 -2 19 1 4 3 -2 6 -13 5 -11 0 -14 -3 -6 -6z"/>
<path d="M11526 3585 c3 -8 12 -15 20 -15 8 0 14 -5 14 -11 0 -5 -5 -7 -12 -3
-16 10 -111 5 -122 -7 -6 -5 -23 -9 -38 -9 -15 0 -28 -4 -28 -10 0 -5 3 -10 8
-11 4 0 14 -2 23 -4 8 -1 33 3 55 11 21 8 53 14 69 15 40 2 65 9 65 18 0 3
-13 15 -30 24 -25 15 -29 16 -24 2z"/>
<path d="M10900 3559 c0 -5 5 -7 10 -4 6 3 10 8 10 11 0 2 -4 4 -10 4 -5 0
-10 -5 -10 -11z"/>
<path d="M10930 3550 c0 -5 5 -10 10 -10 6 0 10 5 10 10 0 6 -4 10 -10 10 -5
0 -10 -4 -10 -10z"/>
<path d="M11139 3549 c-13 -4 29 -7 94 -8 64 -1 117 2 117 7 0 9 -179 10 -211
1z"/>
<path d="M10880 3540 c0 -5 4 -10 9 -10 5 0 18 -3 28 -6 16 -5 16 -4 -1 10
-23 18 -36 20 -36 6z"/>
<path d="M11580 3540 c-8 -5 -11 -13 -6 -17 5 -4 11 -2 13 5 3 6 9 12 15 12 6
0 8 -7 4 -15 -5 -15 5 -20 17 -8 7 6 -11 33 -22 33 -3 0 -13 -4 -21 -10z"/>
<path d="M10832 3503 c-17 -20 -30 -38 -28 -41 3 -2 16 9 30 24 13 16 27 26
31 22 4 -3 -3 -16 -14 -27 -12 -12 -21 -27 -20 -33 0 -10 2 -10 6 0 9 23 23
12 23 -18 0 -32 14 -40 24 -14 9 23 7 36 -4 29 -6 -3 -7 1 -4 9 4 9 1 16 -6
16 -9 0 -10 3 -1 14 7 8 8 22 4 34 -8 20 -10 20 -41 -15z"/>
<path d="M11000 3530 c0 -5 9 -10 20 -10 11 0 20 5 20 10 0 6 -9 10 -20 10
-11 0 -20 -4 -20 -10z"/>
<path d="M11518 3472 c-5 -58 -2 -69 23 -75 10 -3 19 -12 19 -20 0 -20 25 -28
51 -18 20 7 20 9 -14 29 -40 23 -71 74 -64 103 3 11 1 21 -3 24 -4 3 -10 -16
-12 -43z"/>
<path d="M11613 3496 c-28 -13 -28 -21 -4 -47 16 -17 24 -19 52 -10 24 6 27 9
13 10 -22 1 -39 25 -35 49 1 6 1 11 -1 11 -2 -1 -13 -6 -25 -13z"/>
<path d="M11655 3470 c3 -5 11 -10 16 -10 6 0 7 5 4 10 -3 6 -11 10 -16 10 -6
0 -7 -4 -4 -10z"/>
<path d="M10793 3417 c-1 -28 4 -35 28 -46 35 -15 46 -10 25 12 -9 9 -20 27
-26 41 -13 36 -25 32 -27 -7z"/>
<path d="M11680 3420 c0 -5 5 -10 11 -10 5 0 7 5 4 10 -3 6 -8 10 -11 10 -2 0
-4 -4 -4 -10z"/>
<path d="M10772 3380 c1 -14 -2 -52 -4 -85 -3 -33 -3 -45 -1 -27 4 32 16 41
28 22 3 -5 1 -10 -5 -10 -7 0 -7 -6 1 -22 8 -15 10 -82 7 -229 -4 -144 -2
-207 5 -206 15 3 57 52 57 67 0 10 -3 10 -15 0 -9 -7 -18 -10 -21 -7 -3 3 -6
111 -6 241 1 221 -1 235 -18 241 -10 3 -21 14 -23 23 -3 10 -5 7 -5 -8z m28
-58 c0 -7 -4 -10 -10 -7 -5 3 -10 16 -10 28 0 18 2 19 10 7 5 -8 10 -21 10
-28z"/>
<path d="M11680 3384 c0 -8 -4 -13 -8 -10 -4 2 -14 1 -22 -5 -12 -7 -10 -9 7
-9 12 0 23 -8 26 -17 2 -10 4 -1 4 20 1 20 -1 37 -3 37 -2 0 -4 -7 -4 -16z"/>
<path d="M11700 3391 c0 -5 5 -13 10 -16 6 -3 10 -2 10 4 0 5 -4 13 -10 16 -5
3 -10 2 -10 -4z"/>
<path d="M10746 3323 c-3 -21 -5 -112 -4 -203 l2 -165 6 200 c3 110 5 201 4
203 -1 1 -4 -14 -8 -35z"/>
<path d="M11700 3341 c0 -12 -7 -30 -16 -38 -11 -11 -14 -26 -10 -46 3 -16 6
-72 6 -123 0 -156 18 -105 22 64 2 86 3 159 1 161 -2 2 -3 -6 -3 -18z"/>
<path d="M11719 3326 c-3 -22 -2 -60 2 -85 12 -69 11 -203 -1 -196 -6 4 -10
-11 -10 -37 0 -29 3 -38 9 -29 7 11 10 10 14 -5 2 -10 5 62 5 161 0 181 -9
273 -19 191z"/>
<path d="M10850 3120 c0 -73 3 -131 6 -127 3 3 6 60 6 127 0 67 -3 124 -6 127
-3 4 -6 -54 -6 -127z"/>
<path d="M10763 3120 c0 -47 2 -66 4 -42 2 23 2 61 0 85 -2 23 -4 4 -4 -43z"/>
<path d="M10764 2991 c0 -21 7 -36 16 -38 10 -3 11 -2 3 4 -6 4 -13 22 -16 38
-4 27 -5 27 -3 -4z"/>
<path d="M11682 2948 c3 -46 0 -54 -20 -64 -20 -10 -21 -13 -7 -24 8 -7 22
-10 30 -6 13 4 14 2 5 -14 -6 -11 -8 -20 -6 -20 12 0 26 41 19 53 -4 6 -6 38
-4 70 2 36 -1 57 -8 57 -7 0 -10 -19 -9 -52z"/>
<path d="M11715 2940 c-3 -5 -1 -10 4 -10 6 0 11 5 11 10 0 6 -2 10 -4 10 -3
0 -8 -4 -11 -10z"/>
<path d="M10781 2924 c0 -11 3 -14 6 -6 3 7 2 16 -1 19 -3 4 -6 -2 -5 -13z"/>
<path d="M10758 2898 c7 -7 12 -21 12 -32 0 -10 3 -17 6 -13 10 10 -5 57 -18
57 -9 0 -9 -3 0 -12z"/>
<path d="M11560 2865 c0 -17 2 -18 24 -9 23 9 20 24 -4 24 -11 0 -20 -7 -20
-15z"/>
<path d="M11520 2820 c0 -24 15 -27 24 -4 9 22 8 24 -9 24 -8 0 -15 -9 -15
-20z"/>
<path d="M10827 2798 c-2 -8 8 -28 23 -45 l28 -31 -2 41 c-2 34 -7 43 -23 45
-11 2 -23 -3 -26 -10z m28 -28 c10 -11 16 -20 13 -20 -3 0 -13 9 -23 20 -10
11 -16 20 -13 20 3 0 13 -9 23 -20z"/>
<path d="M11602 2798 c-16 -16 -16 -62 0 -52 8 5 9 2 5 -10 -4 -10 -3 -15 3
-11 6 4 9 14 8 23 -2 9 2 17 9 17 15 0 26 12 29 30 3 18 -37 20 -54 3z m42
-19 c-3 -5 -10 -7 -15 -3 -5 3 -7 10 -3 15 3 5 10 7 15 3 5 -3 7 -10 3 -15z"/>
<path d="M11520 2742 c0 -12 6 -22 13 -22 24 0 -18 -20 -43 -20 -28 0 -58 -16
-48 -25 3 -4 16 -2 27 5 15 8 27 8 41 0 15 -8 20 -8 18 1 -2 6 3 14 11 17 8 3
11 0 7 -7 -4 -6 -2 -11 4 -11 15 0 4 50 -15 69 -13 14 -15 13 -15 -7z"/>
<path d="M10890 2709 c0 -5 5 -7 10 -4 6 3 10 8 10 11 0 2 -4 4 -10 4 -5 0
-10 -5 -10 -11z"/>
<path d="M10928 2697 c5 -20 6 -20 13 -1 5 13 8 15 9 4 2 -8 2 -18 2 -21 -1
-3 11 -4 26 -2 24 3 25 2 7 -7 -16 -8 -14 -9 14 -5 19 3 37 8 40 11 9 9 -22
24 -50 24 -14 0 -29 3 -33 7 -16 16 -33 10 -28 -10z"/>
<path d="M11400 2710 c19 -5 41 -4 50 0 10 6 -1 9 -35 9 -48 -1 -49 -1 -15 -9z"/>
<path d="M11488 2713 c6 -2 18 -2 25 0 6 3 1 5 -13 5 -14 0 -19 -2 -12 -5z"/>
<path d="M11100 2701 c-45 -5 -50 -7 -30 -13 35 -11 140 -10 140 1 0 10 -26
22 -43 19 -7 -1 -37 -4 -67 -7z"/>
<path d="M11360 2655 c0 -12 -23 -15 -127 -18 l-128 -3 153 -2 c100 -1 151 1
147 8 -3 6 1 10 9 10 9 0 16 5 16 10 0 6 -16 10 -35 10 -24 0 -35 -5 -35 -15z"/>
<path d="M11488 2663 c7 -3 16 -2 19 1 4 3 -2 6 -13 5 -11 0 -14 -3 -6 -6z"/>
<path d="M11138 2653 c12 -2 30 -2 40 0 9 3 -1 5 -23 4 -22 0 -30 -2 -17 -4z"/>
</g>
</svg>
